<svg version="1.1" id="Layer_1" xmlns="http://www.w3.org/2000/svg" xmlns:xlink="http://www.w3.org/1999/xlink" x="0px" y="0px"
	 width="100%" viewBox="0 0 623 739" enable-background="new 0 0 623 739" xml:space="preserve">
<path fill="#FFFFFF" opacity="1.000000" stroke="none" 
	d="
M410.000000,1.000000 
	C481.321625,1.000000 552.643250,1.000000 623.982422,1.000000 
	C623.982422,247.281113 623.982422,493.562225 623.982422,739.921631 
	C416.419708,739.921631 208.839401,739.921631 1.129539,739.921631 
	C1.129539,493.666718 1.129539,247.333359 1.124447,1.000011 
	C91.771141,1.000000 182.422928,1.000000 273.535339,1.468353 
	C273.977295,8.259904 273.958618,14.583101 273.478699,20.939922 
	C267.912628,20.981758 262.804871,21.095041 257.704041,20.956131 
	C254.940506,20.880875 253.879547,21.878866 253.962860,24.671410 
	C254.115036,29.771919 254.014420,34.879971 254.011154,40.454636 
	C254.008041,46.953876 254.012985,52.983364 254.013092,59.480679 
	C254.013885,85.626579 254.019516,111.304657 254.015869,137.453247 
	C254.006851,150.613770 254.007095,163.303741 254.004974,176.462769 
	C254.001907,188.096466 254.103577,199.262619 253.938354,210.424835 
	C253.888489,213.792099 254.756989,215.260040 258.392670,215.066849 
	C263.544189,214.793076 268.720428,214.984741 273.927490,215.447174 
	C273.990173,228.596481 274.011444,241.276108 274.019684,254.428162 
	C273.995209,260.924652 273.983765,266.948669 273.505737,272.980652 
	C266.694031,272.993866 260.348969,272.999176 253.535019,273.002869 
	C248.567139,273.000977 244.059464,273.171692 239.571945,272.944397 
	C236.189774,272.773102 234.728134,273.768402 234.934509,277.397430 
	C235.208435,282.214447 235.012375,287.058167 234.550034,291.926971 
	C227.727753,291.999786 221.373703,292.036072 214.549713,292.048248 
	C208.064377,292.022644 202.048950,292.021179 195.562988,292.012817 
	C190.592880,292.003571 186.073273,292.264099 181.599564,291.922943 
	C177.341949,291.598236 175.507446,292.748230 175.906906,297.374329 
	C176.321136,302.171753 176.006760,307.032135 175.543365,311.913544 
	C169.059509,311.987671 163.043320,312.013184 156.556152,312.025146 
	C151.473343,312.008575 146.854691,312.157776 142.252121,311.950073 
	C139.088898,311.807343 137.798294,312.805450 137.943451,316.123413 
	C138.159164,321.054413 137.975128,326.002930 137.495651,330.962799 
	C130.701385,330.998688 124.372704,331.015717 117.571396,331.019745 
	C112.482414,331.003693 107.859230,331.152527 103.252052,330.945221 
	C100.084244,330.802734 98.804672,331.808533 98.937119,335.126312 
	C99.147362,340.393005 98.967201,345.675262 98.489212,350.969543 
	C92.915642,350.993134 87.802147,351.103271 82.695656,350.961395 
	C79.913490,350.884094 78.880646,351.921448 78.962967,354.699463 
	C79.114288,359.805725 79.020302,364.919281 79.020332,370.026794 
	C79.012100,370.023834 79.011635,370.008453 78.542038,370.005432 
	C73.420708,370.002014 68.765144,370.115387 64.118645,369.959290 
	C61.255054,369.863129 59.931950,370.622375 59.946121,373.825348 
	C60.049747,397.249695 60.047859,420.674896 59.948357,444.099274 
	C59.935097,447.220642 61.094357,448.144226 64.045647,448.044159 
	C69.023888,447.875397 74.012070,448.000122 79.003342,447.989105 
	C79.010612,447.976807 79.038467,447.970398 79.024902,448.441620 
	C79.008606,453.697266 79.110313,458.484924 78.962852,463.264862 
	C78.878181,466.009674 79.837242,467.114838 82.659401,467.039368 
	C88.099777,466.893951 93.546944,467.002594 98.994896,467.003540 
	C98.998497,467.001221 99.003746,466.999054 99.003693,467.467651 
	C99.004204,473.052826 99.109154,478.172394 98.963524,483.284851 
	C98.884666,486.052887 99.879616,487.123016 102.682396,487.035858 
	C107.794281,486.877014 112.914001,486.970032 118.496521,486.978821 
	C125.301109,487.022858 131.639618,487.046051 137.979889,487.530762 
	C138.000397,493.987335 138.019119,499.982391 138.024826,506.448425 
	C138.025803,518.285828 138.039810,529.652222 138.042053,541.486023 
	C138.042938,555.972839 138.055573,569.992371 138.049347,584.479370 
	C138.030487,616.779480 138.030487,648.612061 138.030487,681.108948 
	C144.791641,681.108948 150.894180,681.108948 156.997009,681.565552 
	C156.998383,686.795227 157.108826,691.571838 156.959061,696.340271 
	C156.870911,699.146606 157.974808,700.119019 160.719208,700.039917 
	C165.817459,699.892822 170.922607,699.984070 176.491913,699.984009 
	C189.635452,699.980286 202.311935,699.968567 215.457611,699.970825 
	C228.608810,699.983765 241.290833,699.982788 254.444077,699.988647 
	C259.861053,699.996704 264.812988,699.848511 269.750305,700.052856 
	C272.925293,700.184326 274.204559,699.172607 274.057526,695.862976 
	C273.838318,690.927124 274.007416,685.974060 274.478760,681.018494 
	C280.955383,681.000000 286.964600,680.991333 293.444885,680.988892 
	C298.697449,680.996033 303.481995,680.894104 308.259186,681.037537 
	C310.996796,681.119751 312.120148,680.165771 312.039276,677.342896 
	C311.892975,672.235962 312.003540,667.121704 312.003967,662.006226 
	C312.001007,662.002014 311.995789,661.995117 312.464722,661.997803 
	C318.046967,662.000366 323.163147,661.899170 328.272552,662.040955 
	C331.021820,662.117188 332.116882,661.148499 332.042419,658.335022 
	C331.898346,652.895691 332.003967,647.449707 332.003052,642.003235 
	C332.000000,642.000000 332.006256,642.006104 332.474060,642.004150 
	C337.718964,642.000977 342.499146,641.895752 347.271912,642.038574 
	C350.012665,642.120483 351.121277,641.157288 351.042755,638.342712 
	C350.900421,633.240356 351.016327,628.130920 351.491333,623.017883 
	C357.074493,623.007751 362.193634,622.899109 367.305695,623.042603 
	C370.094055,623.120850 371.116058,622.075256 371.040131,619.297668 
	C370.891266,613.855225 370.981140,608.406372 370.985626,602.494568 
	C371.031769,596.039551 371.064484,590.050171 371.554993,584.041138 
	C376.784668,584.016479 381.559998,583.900879 386.327179,584.048523 
	C389.104675,584.134583 390.112671,583.102478 390.051331,580.326904 
	C389.931396,574.901184 390.073059,569.469666 390.568176,564.032410 
	C396.129761,564.020020 401.232544,563.910339 406.328247,564.053589 
	C409.110138,564.131714 410.118164,563.085449 410.048584,560.319519 
	C409.920319,555.223816 410.049622,550.121582 410.532043,545.015747 
	C415.769470,545.007080 420.549835,544.896545 425.322235,545.043762 
	C428.114044,545.129822 429.121033,544.059692 429.040894,541.296387 
	C428.892944,536.194031 428.988129,531.084717 428.991943,525.511108 
	C429.001465,513.954407 428.870850,502.862457 429.075439,491.776703 
	C429.141876,488.176300 428.246735,486.673798 424.395020,486.924408 
	C419.615265,487.235443 414.799957,487.000427 410.001465,486.532471 
	C409.990082,454.046722 409.977173,422.029724 409.978882,389.542816 
	C409.987030,376.387787 409.980560,363.702667 409.982056,350.547821 
	C410.008881,337.391113 410.027710,324.704071 410.509796,312.010681 
	C415.743317,312.002136 420.516754,311.895966 425.282745,312.037903 
	C428.028900,312.119720 429.113922,311.134430 429.039093,308.335022 
	C428.894135,302.910583 428.993500,297.479614 429.459900,292.029053 
	C435.935883,291.994446 441.943542,291.982147 448.424561,291.980774 
	C453.847321,291.994171 458.802948,291.847931 463.743988,292.052490 
	C466.917206,292.183899 468.205994,291.179413 468.057831,287.862915 
	C467.837189,282.923431 468.005798,277.966614 468.476685,273.010864 
	C473.722900,273.001556 478.504425,272.892883 483.278381,273.036194 
	C486.029205,273.118774 487.119629,272.138885 487.039185,269.331665 
	C486.892944,264.228058 487.002991,259.117126 487.473938,254.005127 
	C492.588287,254.000031 497.255981,253.723251 501.875061,254.078400 
	C506.178497,254.409286 507.104980,252.696259 507.077454,248.690414 
	C506.911163,224.463455 506.993500,200.234802 506.995850,175.537369 
	C506.995880,156.039932 506.992767,137.011841 506.996765,117.517105 
	C507.031738,110.748917 507.059601,104.447372 507.545105,98.093338 
	C512.774292,98.027878 517.549255,97.902901 522.316223,98.044716 
	C525.094788,98.127365 526.120544,97.096306 526.035217,94.320297 
	C525.878601,89.224052 525.972107,84.120110 525.973877,78.549820 
	C525.990784,73.134743 525.846008,68.182976 526.052917,63.245949 
	C526.185730,60.075737 525.186462,58.791473 521.870911,58.936848 
	C516.935425,59.153240 511.982635,58.973343 507.026672,58.495918 
	C507.010498,47.112068 506.912811,36.193165 507.056763,25.277447 
	C507.098450,22.115652 506.209930,20.800539 502.868286,20.946737 
	C497.584686,21.177893 492.284180,21.024035 486.522888,21.021622 
	C473.363953,21.020039 460.672974,21.029945 447.515686,21.023872 
	C441.022430,21.030235 434.995544,21.052578 428.504028,21.045252 
	C422.020355,20.963627 416.001282,20.911669 409.987396,20.400131 
	C409.995056,13.627036 409.997528,7.313518 410.000000,1.000000 
z"/>
<path fill="#E0E7F0" opacity="1.000000" stroke="none" 
	d="
M332.000000,1.000000 
	C344.687561,1.000000 357.375122,1.000000 370.530212,1.468359 
	C371.005646,8.263496 371.013519,14.590275 370.551270,20.946367 
	C357.399200,20.972616 344.717255,20.969549 332.023834,20.500317 
	C332.008240,13.689434 332.004120,7.344717 332.000000,1.000000 
z"/>
<path fill="#EDF2F5" opacity="1.000000" stroke="none" 
	d="
M371.021393,20.917053 
	C371.013519,14.590275 371.005646,8.263496 370.998871,1.468359 
	C383.687561,1.000000 396.375122,1.000000 409.531342,1.000000 
	C409.997528,7.313518 409.995056,13.627036 409.997528,20.465670 
	C410.002441,20.990786 410.023010,21.119864 409.553772,21.073822 
	C396.396820,20.990871 383.709106,20.953962 371.021393,20.917053 
z"/>
<path fill="#CED2D9" opacity="1.000000" stroke="none" 
	d="
M331.531342,1.000000 
	C332.004120,7.344717 332.008240,13.689434 331.551483,20.513908 
	C318.377411,20.980978 305.664185,20.968292 292.966553,20.490238 
	C292.988129,13.683246 292.994080,7.341623 293.000000,1.000000 
	C305.687561,1.000000 318.375122,1.000000 331.531342,1.000000 
z"/>
<path fill="#E4EBF2" opacity="1.000000" stroke="none" 
	d="
M292.531738,1.000000 
	C292.994080,7.341623 292.988129,13.683246 292.503662,20.503208 
	C286.030487,21.007431 280.035828,21.033314 274.016266,21.020695 
	C273.991364,20.982193 273.939911,20.906300 273.939941,20.906300 
	C273.958618,14.583101 273.977295,8.259904 273.997986,1.468353 
	C280.021149,1.000000 286.042297,1.000000 292.531738,1.000000 
z"/>
<path fill="#DEE5EF" opacity="1.000000" stroke="none" 
	d="
M253.972839,699.981873 
	C241.290833,699.982788 228.608810,699.983765 215.462082,699.507080 
	C214.997437,692.686340 214.997498,686.343201 214.998459,679.531372 
	C215.000397,666.707642 215.001419,654.352600 215.470947,641.998535 
	C231.051865,641.666382 246.163147,641.264282 261.277008,641.021362 
	C273.787811,640.820190 274.372833,642.765808 274.000885,628.887024 
	C273.996429,628.720642 274.007355,628.553711 274.001099,628.387512 
	C273.858643,624.603455 275.721802,623.090698 279.457672,622.957397 
	C292.947083,622.476074 292.944641,622.407837 293.000000,608.468811 
	C293.023682,602.507385 293.481537,602.059570 299.614319,602.000000 
	C311.742950,601.882324 311.900360,601.882568 311.919403,590.075745 
	C311.926605,585.624634 314.073181,584.094971 317.954834,584.022461 
	C322.616455,583.935425 327.280762,583.991333 331.961853,584.454224 
	C331.989471,590.945435 331.999115,596.967834 332.005524,603.459717 
	C332.001923,610.288635 332.001587,616.647949 332.001282,623.475098 
	C332.002991,629.963989 332.004608,635.985046 332.006256,642.006104 
	C332.006256,642.006104 332.000000,642.000000 331.533844,642.001831 
	C325.955292,642.004028 320.840088,642.105469 315.731628,641.963806 
	C312.982178,641.887512 311.889343,642.857056 311.963409,645.669556 
	C312.106598,651.107910 311.999268,656.552917 311.995789,661.995117 
	C311.995789,661.995117 312.001007,662.002014 311.534729,662.003052 
	C306.288696,662.004150 301.505798,662.108398 296.730438,661.963745 
	C293.990753,661.880798 292.876953,662.835144 292.956329,665.655945 
	C293.100037,670.760986 292.982330,675.873352 292.973755,680.982666 
	C286.964600,680.991333 280.955383,681.000000 274.009033,681.008789 
	C267.960846,681.007507 262.847076,681.105835 257.739868,680.964478 
	C255.008713,680.888916 253.875778,681.819458 253.955826,684.650146 
	C254.100204,689.756775 253.981613,694.870911 253.972839,699.981873 
z"/>
<path fill="#E4EBF2" opacity="1.000000" stroke="none" 
	d="
M487.006104,254.009232 
	C487.002991,259.117126 486.892944,264.228058 487.039185,269.331665 
	C487.119629,272.138885 486.029205,273.118774 483.278381,273.036194 
	C478.504425,272.892883 473.722900,273.001556 468.007294,273.005188 
	C460.715118,273.005859 454.360168,273.005920 448.003357,272.536957 
	C447.998138,227.044205 447.994781,182.020477 447.994385,136.528717 
	C448.002441,129.708908 448.007568,123.357132 448.479828,117.003601 
	C461.630463,116.668610 474.314026,116.335365 486.997864,116.335358 
	C486.998810,117.112892 486.999420,117.557213 486.998047,118.470085 
	C486.996704,137.626572 486.997314,156.314514 486.997467,175.470947 
	C487.000031,201.962708 487.003052,227.985977 487.006104,254.009232 
z"/>
<path fill="#CED2D9" opacity="1.000000" stroke="none" 
	d="
M137.978134,487.069244 
	C131.639618,487.046051 125.301109,487.022858 118.485397,486.514893 
	C118.004852,480.922760 117.897438,475.812439 118.039871,470.709106 
	C118.116997,467.945831 117.120338,466.882874 114.324745,466.963440 
	C109.221634,467.110443 104.111153,467.001312 99.003746,466.999054 
	C99.003746,466.999054 98.998497,467.001221 98.995949,466.534454 
	C98.993179,461.289398 98.887825,456.507874 99.033310,451.734039 
	C99.116684,448.997955 98.174179,447.886932 95.349129,447.960083 
	C89.915787,448.100739 84.475739,447.981720 79.038467,447.970398 
	C79.038467,447.970398 79.010612,447.976807 79.006721,447.520294 
	C79.005760,421.378662 79.008698,395.693573 79.011635,370.008453 
	C79.011635,370.008453 79.012100,370.023834 79.485611,370.017212 
	C86.300293,369.996796 92.641472,369.983002 98.989456,370.440613 
	C99.000267,377.276733 99.004280,383.641418 99.004456,390.473663 
	C99.002541,396.959198 99.004478,402.977142 99.004425,409.463867 
	C99.002449,414.717163 99.108200,419.504883 98.961922,424.284912 
	C98.877235,427.052368 99.889427,428.120819 102.686211,428.038513 
	C107.796387,427.888214 112.913887,427.987122 118.494919,427.988342 
	C125.318398,427.977264 131.675293,427.959930 138.498001,427.963684 
	C144.975937,428.023071 150.988068,428.061371 157.000092,428.558533 
	C157.000000,435.343323 157.000000,441.669220 156.531555,447.998444 
	C151.284439,448.003418 146.502640,448.109985 141.728363,447.966309 
	C138.980865,447.883606 137.881241,448.857208 137.963287,451.668060 
	C138.112259,456.771942 138.006577,461.883240 138.004822,467.460388 
	C137.994354,474.309296 137.986252,480.689270 137.978134,487.069244 
z"/>
<path fill="#D8E0EA" opacity="1.000000" stroke="none" 
	d="
M447.991455,136.996750 
	C447.994781,182.020477 447.998138,227.044205 447.996765,273.004517 
	C447.978424,279.950684 447.964813,285.960266 447.951202,291.969818 
	C441.943542,291.982147 435.935883,291.994446 429.464447,291.993286 
	C429.000671,291.979767 429.005310,291.907776 429.001282,291.449646 
	C428.998566,239.660583 428.999908,188.329681 429.469421,136.998749 
	C435.955536,136.998047 441.973511,136.997391 447.991455,136.996750 
z"/>
<path fill="#DADDE5" opacity="1.000000" stroke="none" 
	d="
M409.964294,390.012695 
	C409.977173,422.029724 409.990082,454.046722 410.002075,486.532471 
	C410.001221,487.001221 410.004822,487.009064 409.535645,487.005463 
	C397.976196,487.001160 386.883636,486.873230 375.796967,487.072906 
	C372.202301,487.137634 370.696411,486.235901 370.925873,482.384491 
	C371.230499,477.271118 371.006592,472.126282 371.476807,466.996155 
	C376.095123,466.997681 380.263641,466.761810 384.393036,467.062561 
	C388.823120,467.385223 390.124298,465.614746 390.077484,461.308990 
	C389.887939,443.875641 389.998779,426.439056 389.999207,408.535004 
	C389.999359,402.044220 389.999084,396.022125 390.467255,389.999603 
	C397.278595,390.003693 403.621429,390.008179 409.964294,390.012695 
z"/>
<path fill="#D6D9DE" opacity="1.000000" stroke="none" 
	d="
M156.996719,681.108948 
	C150.894180,681.108948 144.791641,681.108948 138.030487,681.108948 
	C138.030487,648.612061 138.030487,616.779480 138.510223,584.475525 
	C144.989578,584.001099 150.989227,583.998108 156.994324,584.464355 
	C157.000641,616.926453 157.001495,648.919373 157.001801,680.961487 
	C157.001221,681.010681 156.996719,681.108948 156.996719,681.108948 
z"/>
<path fill="#EDF2F5" opacity="1.000000" stroke="none" 
	d="
M487.473938,254.005127 
	C487.003052,227.985977 487.000031,201.962708 487.420624,175.480637 
	C494.227051,175.350113 500.609863,175.678406 506.992676,176.006714 
	C506.993500,200.234802 506.911163,224.463455 507.077454,248.690414 
	C507.104980,252.696259 506.178497,254.409286 501.875061,254.078400 
	C497.255981,253.723251 492.588287,254.000031 487.473938,254.005127 
z"/>
<path fill="#E0E7F0" opacity="1.000000" stroke="none" 
	d="
M254.025131,136.982727 
	C254.019516,111.304657 254.013885,85.626579 254.479446,59.475563 
	C261.279480,58.995003 267.608337,58.987381 273.959076,59.450195 
	C273.970093,85.619827 273.959259,111.319023 273.483276,137.011475 
	C266.687103,136.997391 260.356110,136.990067 254.025131,136.982727 
z"/>
<path fill="#F6F8FB" opacity="1.000000" stroke="none" 
	d="
M78.542038,370.005432 
	C79.008698,395.693573 79.005760,421.378662 78.999451,447.532593 
	C74.012070,448.000122 69.023888,447.875397 64.045647,448.044159 
	C61.094357,448.144226 59.935097,447.220642 59.948357,444.099274 
	C60.047859,420.674896 60.049747,397.249695 59.946121,373.825348 
	C59.931950,370.622375 61.255054,369.863129 64.118645,369.959290 
	C68.765144,370.115387 73.420708,370.002014 78.542038,370.005432 
z"/>
<path fill="#F6F8FB" opacity="1.000000" stroke="none" 
	d="
M506.995850,175.537369 
	C500.609863,175.678406 494.227051,175.350113 487.421082,175.012131 
	C486.997314,156.314514 486.996704,137.626572 487.466431,118.468796 
	C494.287750,117.993881 500.638702,117.988815 506.989655,117.983742 
	C506.992767,137.011841 506.995880,156.039932 506.995850,175.537369 
z"/>
<path fill="#CFD7E0" opacity="1.000000" stroke="none" 
	d="
M137.979889,487.530762 
	C137.986252,480.689270 137.994354,474.309296 138.472473,467.462952 
	C143.743240,466.998230 148.547562,467.112244 153.343369,466.959045 
	C156.192917,466.868042 157.148544,468.028687 157.035248,470.766083 
	C156.884796,474.401764 157.233597,478.067627 156.937302,481.685242 
	C156.609955,485.681946 157.784912,487.412933 162.096985,487.079376 
	C166.704483,486.723022 171.361145,487.002014 175.998138,487.471527 
	C176.002136,493.956512 176.004318,499.973633 175.537811,505.993042 
	C169.042419,505.997314 163.015686,505.999268 156.521393,506.000763 
	C150.048477,505.992706 144.043167,505.985077 138.037842,505.977478 
	C138.019119,499.982391 138.000397,493.987335 137.979889,487.530762 
z"/>
<path fill="#DEE5EF" opacity="1.000000" stroke="none" 
	d="
M447.981995,21.039852 
	C460.672974,21.029945 473.363953,21.020039 486.526123,21.486198 
	C486.997375,27.974535 486.997467,33.986809 486.529846,39.999458 
	C484.233063,39.999939 482.403748,39.983238 480.574860,40.002827 
	C466.677551,40.151661 466.658783,37.995422 466.998688,53.221157 
	C467.002411,53.387333 466.985321,53.554630 466.998077,53.719845 
	C467.252350,57.013802 465.573730,58.111515 462.469360,58.031036 
	C457.650452,57.906101 452.825836,57.999683 448.001221,57.531937 
	C447.993195,45.055447 447.987579,33.047649 447.981995,21.039852 
z"/>
<path fill="#DADDE5" opacity="1.000000" stroke="none" 
	d="
M156.988861,583.995117 
	C150.989227,583.998108 144.989578,584.001099 138.529083,584.007935 
	C138.055573,569.992371 138.042938,555.972839 138.504364,541.479980 
	C144.984726,541.003601 150.991028,541.000549 157.004593,541.466431 
	C157.004196,555.955261 156.996536,569.975220 156.988861,583.995117 
z"/>
<path fill="#F6F8FB" opacity="1.000000" stroke="none" 
	d="
M273.886108,214.977478 
	C268.720428,214.984741 263.544189,214.793076 258.392670,215.066849 
	C254.756989,215.260040 253.888489,213.792099 253.938354,210.424835 
	C254.103577,199.262619 254.001907,188.096466 254.472504,176.464966 
	C261.270844,176.003754 267.599274,176.009430 273.954956,176.481628 
	C274.025177,189.639328 274.068237,202.330490 274.055206,215.009521 
	C273.999115,214.997375 273.886108,214.977478 273.886108,214.977478 
z"/>
<path fill="#EDF2F5" opacity="1.000000" stroke="none" 
	d="
M273.927734,176.015091 
	C267.599274,176.009430 261.270844,176.003754 254.474854,175.995911 
	C254.007095,163.303741 254.006851,150.613770 254.015869,137.453247 
	C260.356110,136.990067 266.687103,136.997391 273.501862,137.477936 
	C273.966309,150.639130 273.947021,163.327103 273.927734,176.015091 
z"/>
<path fill="#EDF2F5" opacity="1.000000" stroke="none" 
	d="
M410.046570,312.017059 
	C410.027710,324.704071 410.008881,337.391113 409.516602,350.542328 
	C402.699188,351.002167 396.355164,350.997803 390.005371,350.525818 
	C389.984222,343.701904 389.968842,337.345703 389.968079,330.522095 
	C389.992706,324.047455 390.002747,318.040192 390.479797,312.020630 
	C397.281830,311.996246 403.616791,311.984100 409.975800,311.982544 
	C409.999817,311.993103 410.046539,312.017059 410.046570,312.017059 
z"/>
<path fill="#CED2D9" opacity="1.000000" stroke="none" 
	d="
M118.044022,331.032745 
	C124.372704,331.015717 130.701385,330.998688 137.967712,330.982300 
	C144.929214,330.973267 150.953079,330.963531 156.987061,330.974731 
	C156.997162,330.995697 157.016922,331.037842 157.010132,331.502289 
	C156.996445,338.305328 156.989548,344.643951 156.516373,350.988464 
	C150.035172,350.998291 144.020218,351.002197 137.536545,351.004150 
	C130.695358,350.991699 124.322899,350.981232 117.963905,350.504425 
	C117.999580,343.702942 118.021797,337.367859 118.044022,331.032745 
z"/>
<path fill="#E0E7F0" opacity="1.000000" stroke="none" 
	d="
M390.011169,350.993469 
	C396.355164,350.997803 402.699188,351.002167 409.508667,351.012024 
	C409.980560,363.702667 409.987030,376.387787 409.978882,389.542816 
	C403.621429,390.008179 397.278595,390.003693 390.467712,389.531189 
	C389.994995,382.704590 389.990326,376.346039 389.988770,369.520630 
	C389.998322,363.033661 390.004761,357.013580 390.011169,350.993469 
z"/>
<path fill="#DADDE5" opacity="1.000000" stroke="none" 
	d="
M214.997559,680.000000 
	C214.997498,686.343201 214.997437,692.686340 214.992889,699.493225 
	C202.311935,699.968567 189.635452,699.980286 176.481720,699.518494 
	C176.003281,693.036926 176.002075,687.028870 175.993393,681.007751 
	C175.985931,680.994751 175.981125,680.966187 176.451538,680.978760 
	C182.016190,680.994019 187.116180,681.128967 192.200714,680.907837 
	C193.494827,680.851562 194.739792,679.664856 196.435593,678.999634 
	C202.908417,679.334473 208.952988,679.667236 214.997559,680.000000 
z"/>
<path fill="#E4EBF2" opacity="1.000000" stroke="none" 
	d="
M486.997559,39.999084 
	C486.997467,33.986809 486.997375,27.974535 486.994080,21.497686 
	C492.284180,21.024035 497.584686,21.177893 502.868286,20.946737 
	C506.209930,20.800539 507.098450,22.115652 507.056763,25.277447 
	C506.912811,36.193165 507.010498,47.112068 507.010681,58.512154 
	C507.005219,58.994549 506.973145,59.026604 506.507599,59.016907 
	C499.698547,59.010361 493.355042,59.013508 487.007812,58.547356 
	C487.001923,52.051731 486.999756,46.025406 486.997559,39.999084 
z"/>
<path fill="#CED2D9" opacity="1.000000" stroke="none" 
	d="
M274.032715,253.955719 
	C274.011444,241.276108 273.990173,228.596481 273.927490,215.447174 
	C273.886108,214.977478 273.999115,214.997375 274.511658,215.001099 
	C279.321899,215.003052 283.642578,215.277191 287.910950,214.922318 
	C292.219757,214.564117 293.166443,216.330002 293.080963,220.306076 
	C292.839386,231.541214 292.985657,242.784683 292.512177,254.019501 
	C286.041077,253.994644 280.036926,253.975189 274.032715,253.955719 
z"/>
<path fill="#CED2D9" opacity="1.000000" stroke="none" 
	d="
M332.008759,602.990234 
	C331.999115,596.967834 331.989471,590.945435 331.986298,584.455566 
	C331.992767,583.988159 332.039978,584.000732 332.504547,584.001099 
	C345.620270,583.987732 358.271393,583.973938 370.965881,583.985901 
	C371.009216,584.011658 371.097229,584.060730 371.097229,584.060730 
	C371.064484,590.050171 371.031769,596.039551 370.520325,602.509155 
	C363.703613,603.000854 357.365601,603.012451 350.556274,603.015381 
	C344.059601,603.001160 338.034180,602.995728 332.008759,602.990234 
z"/>
<path fill="#D6D9DE" opacity="1.000000" stroke="none" 
	d="
M410.000610,487.001221 
	C414.799957,487.000427 419.615265,487.235443 424.395020,486.924408 
	C428.246735,486.673798 429.141876,488.176300 429.075439,491.776703 
	C428.870850,502.862457 429.001465,513.954407 428.525757,525.523315 
	C422.042969,526.016968 416.036255,526.031311 410.019958,525.572266 
	C410.005676,518.727661 410.001007,512.356445 409.998077,505.517822 
	C410.001495,499.036682 410.003143,493.022858 410.004822,487.009064 
	C410.004822,487.009064 410.001221,487.001221 410.000610,487.001221 
z"/>
<path fill="#D6D9DE" opacity="1.000000" stroke="none" 
	d="
M447.515686,21.023872 
	C447.987579,33.047649 447.993195,45.055447 447.995667,57.782570 
	C447.989136,58.668991 447.985718,58.836086 447.516022,59.002129 
	C441.032745,59.000618 435.015778,59.000156 428.998779,58.531456 
	C428.996887,52.040352 428.994995,46.017483 428.995911,39.526699 
	C428.988708,33.064163 428.978668,27.069540 428.968628,21.074919 
	C434.995544,21.052578 441.022430,21.030235 447.515686,21.023872 
z"/>
<path fill="#E0E7F0" opacity="1.000000" stroke="none" 
	d="
M156.997330,540.997559 
	C150.991028,541.000549 144.984726,541.003601 138.516113,541.012695 
	C138.039810,529.652222 138.025803,518.285828 138.024826,506.448425 
	C144.043167,505.985077 150.048477,505.992706 156.524567,506.469269 
	C156.995987,518.291321 156.996658,529.644470 156.997330,540.997559 
z"/>
<path fill="#CFD7E0" opacity="1.000000" stroke="none" 
	d="
M215.019623,292.072357 
	C221.373703,292.036072 227.727753,291.999786 234.543488,291.983337 
	C235.005173,292.003174 234.986328,292.113037 234.992401,292.569092 
	C234.997894,299.349274 234.997330,305.673401 234.528564,312.000244 
	C227.705765,311.999084 221.351151,311.995270 214.998566,311.523560 
	C215.006927,304.727936 215.013275,298.400146 215.019623,292.072357 
z"/>
<path fill="#DEE5EF" opacity="1.000000" stroke="none" 
	d="
M506.996765,117.517105 
	C500.638702,117.988815 494.287750,117.993881 487.468384,118.000244 
	C486.999420,117.557213 486.998810,117.112892 486.998718,115.867149 
	C487.003510,109.371735 487.007782,103.677757 487.479126,97.991653 
	C494.269653,97.962151 500.593048,97.924759 506.958679,97.952332 
	C507.000916,98.017296 507.087463,98.145828 507.087463,98.145828 
	C507.059601,104.447372 507.031738,110.748917 506.996765,117.517105 
z"/>
<path fill="#F6F8FB" opacity="1.000000" stroke="none" 
	d="
M176.011047,311.864960 
	C176.006760,307.032135 176.321136,302.171753 175.906906,297.374329 
	C175.507446,292.748230 177.341949,291.598236 181.599564,291.922943 
	C186.073273,292.264099 190.592880,292.003571 195.550232,292.478943 
	C195.993423,299.287170 195.978836,305.622437 195.499878,311.977051 
	C188.691528,312.039825 182.347580,312.083313 176.009506,312.061462 
	C176.015396,311.996124 176.011047,311.864960 176.011047,311.864960 
z"/>
<path fill="#EDF2F5" opacity="1.000000" stroke="none" 
	d="
M312.464722,661.997803 
	C311.999268,656.552917 312.106598,651.107910 311.963409,645.669556 
	C311.889343,642.857056 312.982178,641.887512 315.731628,641.963806 
	C320.840088,642.105469 325.955292,642.004028 331.536926,642.005127 
	C332.003967,647.449707 331.898346,652.895691 332.042419,658.335022 
	C332.116882,661.148499 331.021820,662.117188 328.272552,662.040955 
	C323.163147,661.899170 318.046967,662.000366 312.464722,661.997803 
z"/>
<path fill="#EDF2F5" opacity="1.000000" stroke="none" 
	d="
M351.027557,603.024109 
	C357.365601,603.012451 363.703613,603.000854 370.506958,602.974731 
	C370.981140,608.406372 370.891266,613.855225 371.040131,619.297668 
	C371.116058,622.075256 370.094055,623.120850 367.305695,623.042603 
	C362.193634,622.899109 357.074493,623.007751 351.480438,623.007080 
	C351.002594,623.002747 350.982910,622.982910 350.989319,622.516357 
	C351.006348,615.707886 351.016968,609.365967 351.027557,603.024109 
z"/>
<path fill="#DEE5EF" opacity="1.000000" stroke="none" 
	d="
M410.071625,545.022095 
	C410.049622,550.121582 409.920319,555.223816 410.048584,560.319519 
	C410.118164,563.085449 409.110138,564.131714 406.328247,564.053589 
	C401.232544,563.910339 396.129761,564.020020 390.528473,564.018433 
	C390.027039,564.012695 389.947296,563.985779 389.971924,563.519531 
	C390.004578,557.036987 390.012634,551.020691 390.487793,545.003723 
	C397.288605,544.997986 403.622345,544.992859 409.985229,544.995361 
	C410.014435,545.002991 410.071625,545.022095 410.071625,545.022095 
z"/>
<path fill="#F6F8FB" opacity="1.000000" stroke="none" 
	d="
M254.444077,699.988647 
	C253.981613,694.870911 254.100204,689.756775 253.955826,684.650146 
	C253.875778,681.819458 255.008713,680.888916 257.739868,680.964478 
	C262.847076,681.105835 267.960846,681.007507 273.541595,681.018616 
	C274.007416,685.974060 273.838318,690.927124 274.057526,695.862976 
	C274.204559,699.172607 272.925293,700.184326 269.750305,700.052856 
	C264.812988,699.848511 259.861053,699.996704 254.444077,699.988647 
z"/>
<path fill="#E4EBF2" opacity="1.000000" stroke="none" 
	d="
M79.024902,448.441650 
	C84.475739,447.981720 89.915787,448.100739 95.349129,447.960083 
	C98.174179,447.886932 99.116684,448.997955 99.033310,451.734039 
	C98.887825,456.507874 98.993179,461.289398 98.992348,466.536774 
	C93.546944,467.002594 88.099777,466.893951 82.659401,467.039368 
	C79.837242,467.114838 78.878181,466.009674 78.962852,463.264862 
	C79.110313,458.484924 79.008606,453.697266 79.024902,448.441650 
z"/>
<path fill="#E0E7F0" opacity="1.000000" stroke="none" 
	d="
M99.003693,467.467651 
	C104.111153,467.001312 109.221634,467.110443 114.324745,466.963440 
	C117.120338,466.882874 118.116997,467.945831 118.039871,470.709106 
	C117.897438,475.812439 118.004852,480.922760 118.019318,486.494080 
	C112.914001,486.970032 107.794281,486.877014 102.682396,487.035858 
	C99.879616,487.123016 98.884666,486.052887 98.963524,483.284851 
	C99.109154,478.172394 99.004204,473.052826 99.003693,467.467651 
z"/>
<path fill="#D6D9DE" opacity="1.000000" stroke="none" 
	d="
M390.066711,564.026611 
	C390.073059,569.469666 389.931396,574.901184 390.051331,580.326904 
	C390.112671,583.102478 389.104675,584.134583 386.327179,584.048523 
	C381.559998,583.900879 376.784668,584.016479 371.554993,584.041138 
	C371.097229,584.060730 371.009216,584.011658 370.993958,583.522583 
	C370.986176,576.688965 370.993683,570.344482 371.469360,564.000854 
	C377.940765,563.996399 383.944031,563.991089 389.947296,563.985779 
	C389.947296,563.985779 390.027039,564.012695 390.066711,564.026611 
z"/>
<path fill="#F6F8FB" opacity="1.000000" stroke="none" 
	d="
M428.996155,292.015564 
	C428.993500,297.479614 428.894135,302.910583 429.039093,308.335022 
	C429.113922,311.134430 428.028900,312.119720 425.282745,312.037903 
	C420.516754,311.895966 415.743317,312.002136 410.509766,312.010681 
	C410.046539,312.017059 409.999817,311.993103 409.992432,311.517517 
	C409.994080,304.697021 410.003113,298.352051 410.006531,292.005432 
	C410.000946,292.003723 410.016418,292.022858 410.483582,292.014282 
	C416.968964,291.973053 422.987122,291.940399 429.005310,291.907776 
	C429.005310,291.907776 429.000671,291.979767 428.996155,292.015564 
z"/>
<path fill="#DEE5EF" opacity="1.000000" stroke="none" 
	d="
M254.019226,39.984879 
	C254.014420,34.879971 254.115036,29.771919 253.962860,24.671410 
	C253.879547,21.878866 254.940506,20.880875 257.704041,20.956131 
	C262.804871,21.095041 267.912628,20.981758 273.478699,20.939922 
	C273.939911,20.906300 273.991364,20.982193 273.997742,21.482105 
	C273.980774,27.998426 273.957458,34.014835 273.469971,40.021564 
	C266.676941,40.002880 260.348083,39.993877 254.019226,39.984879 
z"/>
<path fill="#EDF2F5" opacity="1.000000" stroke="none" 
	d="
M254.011169,40.454632 
	C260.348083,39.993877 266.676941,40.002880 273.496582,40.011974 
	C273.987366,40.012066 274.033844,39.982269 274.019775,40.452110 
	C273.982849,46.941219 273.960022,52.960491 273.937195,58.979759 
	C267.608337,58.987381 261.279480,58.995003 254.484283,59.007736 
	C254.012985,52.983364 254.008041,46.953876 254.011169,40.454632 
z"/>
<path fill="#E4EBF2" opacity="1.000000" stroke="none" 
	d="
M507.021210,58.978313 
	C511.982635,58.973343 516.935425,59.153240 521.870911,58.936848 
	C525.186462,58.791473 526.185730,60.075737 526.052917,63.245949 
	C525.846008,68.182976 525.990784,73.134743 525.510071,78.542290 
	C519.050171,78.988914 513.066772,78.973511 507.052826,78.494911 
	C507.005951,71.696678 506.989532,65.361641 506.973145,59.026604 
	C506.973145,59.026604 507.005219,58.994549 507.021210,58.978313 
z"/>
<path fill="#EDF2F5" opacity="1.000000" stroke="none" 
	d="
M254.003876,273.004517 
	C260.348969,272.999176 266.694031,272.993866 273.516602,272.991333 
	C273.994080,272.994110 274.013428,273.013428 274.006897,273.480164 
	C273.990295,279.955566 273.980194,285.964264 273.503632,291.980591 
	C266.680817,291.965668 260.324493,291.943085 253.978058,291.457336 
	C253.993271,284.997589 253.998581,279.001068 254.003876,273.004517 
z"/>
<path fill="#F6F8FB" opacity="1.000000" stroke="none" 
	d="
M448.424561,291.980774 
	C447.964813,285.960266 447.978424,279.950684 447.998657,273.473572 
	C454.360168,273.005920 460.715118,273.005859 467.539429,273.011475 
	C468.005798,277.966614 467.837189,282.923431 468.057831,287.862915 
	C468.205994,291.179413 466.917206,292.183899 463.743988,292.052490 
	C458.802948,291.847931 453.847321,291.994171 448.424561,291.980774 
z"/>
<path fill="#DADDE5" opacity="1.000000" stroke="none" 
	d="
M195.964249,311.957733 
	C195.978836,305.622437 195.993423,299.287170 196.020782,292.485779 
	C202.048950,292.021179 208.064377,292.022644 214.549713,292.048248 
	C215.013275,298.400146 215.006927,304.727936 214.530731,311.531982 
	C208.028656,311.991425 201.996460,311.974579 195.964249,311.957733 
z"/>
<path fill="#EDF2F5" opacity="1.000000" stroke="none" 
	d="
M117.571396,331.019745 
	C118.021797,337.367859 117.999580,343.702942 117.501045,350.513062 
	C111.032196,351.007690 105.039658,351.027313 99.023315,351.023010 
	C98.999504,350.999115 98.952202,350.950958 98.952202,350.950958 
	C98.967201,345.675262 99.147362,340.393005 98.937119,335.126312 
	C98.804672,331.808533 100.084244,330.802734 103.252052,330.945221 
	C107.859230,331.152527 112.482414,331.003693 117.571396,331.019745 
z"/>
<path fill="#EDF2F5" opacity="1.000000" stroke="none" 
	d="
M98.982651,369.969177 
	C92.641472,369.983002 86.300293,369.996796 79.493835,370.020203 
	C79.020302,364.919281 79.114288,359.805725 78.962967,354.699463 
	C78.880646,351.921448 79.913490,350.884094 82.695656,350.961395 
	C87.802147,351.103271 92.915642,350.993134 98.489212,350.969543 
	C98.952202,350.950958 98.999504,350.999115 99.007645,351.485809 
	C99.004730,357.971405 98.993690,363.970276 98.982651,369.969177 
z"/>
<path fill="#EDF2F5" opacity="1.000000" stroke="none" 
	d="
M274.019714,254.428162 
	C280.036926,253.975189 286.041077,253.994644 292.517303,254.009735 
	C292.989349,254.005356 292.977692,254.018799 292.981873,254.485168 
	C292.978943,260.955078 292.971832,266.958649 292.500122,272.974182 
	C286.028168,272.995239 280.020782,273.004333 274.013428,273.013428 
	C274.013428,273.013428 273.994080,272.994110 273.983215,272.983398 
	C273.983765,266.948669 273.995209,260.924652 274.019714,254.428162 
z"/>
<path fill="#EDF2F5" opacity="1.000000" stroke="none" 
	d="
M176.000854,681.020752 
	C176.002075,687.028870 176.003281,693.036926 176.014679,699.510620 
	C170.922607,699.984070 165.817459,699.892822 160.719208,700.039917 
	C157.974808,700.119019 156.870911,699.146606 156.959061,696.340271 
	C157.108826,691.571838 156.998383,686.795227 156.997009,681.565552 
	C156.996719,681.108948 157.001221,681.010681 157.469040,680.994629 
	C163.958191,680.992615 169.979523,681.006653 176.000854,681.020752 
z"/>
<path fill="#C5CAD2" opacity="1.000000" stroke="none" 
	d="
M428.504028,21.045252 
	C428.978668,27.069540 428.988708,33.064163 428.528748,39.529457 
	C422.373322,40.001377 416.687897,40.002625 410.750610,40.002048 
	C410.330933,39.999214 410.163055,39.998199 409.997742,39.529121 
	C410.007874,33.080654 410.015442,27.100260 410.023010,21.119864 
	C410.023010,21.119864 410.002441,20.990786 409.992310,20.925247 
	C416.001282,20.911669 422.020355,20.963627 428.504028,21.045252 
z"/>
<path fill="#F6F8FB" opacity="1.000000" stroke="none" 
	d="
M293.444885,680.988892 
	C292.982330,675.873352 293.100037,670.760986 292.956329,665.655945 
	C292.876953,662.835144 293.990753,661.880798 296.730438,661.963745 
	C301.505798,662.108398 306.288696,662.004150 311.537659,662.007324 
	C312.003540,667.121704 311.892975,672.235962 312.039276,677.342896 
	C312.120148,680.165771 310.996796,681.119751 308.259186,681.037537 
	C303.481995,680.894104 298.697449,680.996033 293.444885,680.988892 
z"/>
<path fill="#EDF2F5" opacity="1.000000" stroke="none" 
	d="
M332.474060,642.004150 
	C332.004608,635.985046 332.002991,629.963989 332.469421,623.472229 
	C338.952637,622.995361 344.967773,622.989136 350.982910,622.982910 
	C350.982910,622.982910 351.002594,623.002747 351.013489,623.013550 
	C351.016327,628.130920 350.900421,633.240356 351.042755,638.342712 
	C351.121277,641.157288 350.012665,642.120483 347.271912,642.038574 
	C342.499146,641.895752 337.718964,642.000977 332.474060,642.004150 
z"/>
<path fill="#DADDE5" opacity="1.000000" stroke="none" 
	d="
M507.083313,78.958107 
	C513.066772,78.973511 519.050171,78.988914 525.497437,79.011848 
	C525.972107,84.120110 525.878601,89.224052 526.035217,94.320297 
	C526.120544,97.096306 525.094788,98.127365 522.316223,98.044716 
	C517.549255,97.902901 512.774292,98.027878 507.545074,98.093338 
	C507.087463,98.145828 507.000916,98.017296 506.987885,97.496223 
	C506.954865,91.001389 506.934875,85.027634 506.957581,79.031036 
	C507.000336,79.008194 507.083313,78.958107 507.083313,78.958107 
z"/>
<path fill="#D6D9DE" opacity="1.000000" stroke="none" 
	d="
M157.027161,312.038696 
	C163.043320,312.013184 169.059509,311.987671 175.543365,311.913544 
	C176.011047,311.864960 176.015396,311.996124 176.011734,312.515991 
	C176.001358,319.019928 175.994629,325.003937 175.520416,330.991516 
	C169.040924,331.009308 163.028915,331.023560 157.016922,331.037842 
	C157.016922,331.037842 156.997162,330.995697 156.995117,330.511841 
	C157.004425,324.031525 157.015793,318.035126 157.027161,312.038696 
z"/>
<path fill="#F6F8FB" opacity="1.000000" stroke="none" 
	d="
M253.535019,273.002899 
	C253.998581,279.001068 253.993271,284.997589 253.986237,291.495422 
	C253.984512,291.996674 254.017838,292.065247 253.547974,292.042786 
	C247.047501,292.051239 241.016922,292.082153 234.986328,292.113037 
	C234.986328,292.113037 235.005173,292.003174 235.011719,291.946777 
	C235.012375,287.058167 235.208435,282.214447 234.934509,277.397430 
	C234.728134,273.768402 236.189774,272.773102 239.571945,272.944397 
	C244.059464,273.171692 248.567139,273.000977 253.535019,273.002899 
z"/>
<path fill="#EDF2F5" opacity="1.000000" stroke="none" 
	d="
M410.029572,526.045654 
	C416.036255,526.031311 422.042969,526.016968 428.515808,525.990479 
	C428.988129,531.084717 428.892944,536.194031 429.040894,541.296387 
	C429.121033,544.059692 428.114044,545.129822 425.322235,545.043762 
	C420.549835,544.896545 415.769470,545.007080 410.532043,545.015747 
	C410.071625,545.022095 410.014435,545.002991 410.002686,544.528748 
	C410.003815,538.051575 410.016693,532.048584 410.029572,526.045654 
z"/>
<path fill="#E4EBF2" opacity="1.000000" stroke="none" 
	d="
M156.556152,312.025146 
	C157.015793,318.035126 157.004425,324.031525 156.985001,330.490875 
	C150.953079,330.963531 144.929214,330.973267 138.433289,330.963501 
	C137.975128,326.002930 138.159164,321.054413 137.943451,316.123413 
	C137.798294,312.805450 139.088898,311.807343 142.252121,311.950073 
	C146.854691,312.157776 151.473343,312.008575 156.556152,312.025146 
z"/>
<path fill="#BEC2CA" opacity="1.000000" stroke="none" 
	d="
M409.553772,21.073822 
	C410.015442,27.100260 410.007874,33.080654 409.529602,39.530739 
	C389.707153,40.002827 370.355408,40.005226 350.534790,40.005104 
	C324.721893,39.995808 299.377869,39.989037 274.033844,39.982269 
	C274.033844,39.982269 273.987366,40.012066 273.960754,40.021656 
	C273.957458,34.014835 273.980774,27.998426 274.022644,21.520607 
	C280.035828,21.033314 286.030487,21.007431 292.488037,20.968578 
	C305.664185,20.968292 318.377411,20.980978 331.562988,20.980074 
	C344.717255,20.969549 357.399200,20.972616 370.551270,20.946367 
	C383.709106,20.953962 396.396820,20.990871 409.553772,21.073822 
z"/>
<path fill="#E0E9F3" opacity="1.000000" stroke="none" 
	d="
M331.968323,583.986755 
	C327.280762,583.991333 322.616455,583.935425 317.954834,584.022461 
	C314.073181,584.094971 311.926605,585.624634 311.919403,590.075745 
	C311.900360,601.882568 311.742950,601.882324 299.614319,602.000000 
	C293.481537,602.059570 293.023682,602.507385 293.000000,608.468811 
	C292.944641,622.407837 292.947083,622.476074 279.457672,622.957397 
	C275.721802,623.090698 273.858643,624.603455 274.001099,628.387512 
	C274.007355,628.553711 273.996429,628.720642 274.000885,628.887024 
	C274.372833,642.765808 273.787811,640.820190 261.277008,641.021362 
	C246.163147,641.264282 231.051865,641.666382 215.470184,641.530151 
	C214.999603,596.040955 214.998276,551.021057 215.373978,505.932922 
	C219.137161,501.662079 218.836411,492.563416 215.488663,487.046783 
	C211.540436,480.540619 211.766174,473.766052 215.296494,467.293518 
	C215.729858,472.220886 215.645370,476.877777 216.124634,481.475861 
	C216.287674,483.040100 217.761566,485.658478 218.821640,485.754639 
	C229.668442,486.738983 240.546356,487.662567 251.429855,487.876099 
	C261.021912,488.064270 270.629883,487.218109 280.234772,487.026459 
	C293.756195,486.756653 291.839600,488.761597 291.998505,475.487549 
	C292.010437,474.489960 292.040314,473.490295 291.994995,472.494629 
	C291.816803,468.579163 293.358276,466.839325 297.578003,466.924988 
	C308.715027,467.150970 319.859619,467.002075 330.947815,467.417511 
	C330.596344,469.620087 330.074097,471.402893 330.036469,473.195862 
	C329.792145,484.836456 329.826691,484.837219 318.341064,485.000092 
	C312.760590,485.079224 310.908356,486.842194 311.033264,492.582428 
	C311.246277,502.374908 311.859161,512.161804 311.913971,521.953247 
	C311.938995,526.422119 314.119446,527.911133 317.990631,527.978210 
	C322.655670,528.059082 327.323090,528.000549 331.992188,528.469788 
	C332.001617,534.300415 332.008423,539.663696 332.009033,545.493896 
	C332.015228,558.640808 332.027588,571.320740 332.039978,584.000732 
	C332.039978,584.000732 331.992767,583.988159 331.968323,583.986755 
z"/>
<path fill="#D8E0EA" opacity="1.000000" stroke="none" 
	d="
M214.996948,506.001221 
	C214.998276,551.021057 214.999603,596.040955 215.001678,641.529175 
	C215.001419,654.352600 215.000397,666.707642 214.998459,679.531372 
	C208.952988,679.667236 202.908417,679.334473 196.433624,678.531250 
	C196.001648,620.707581 195.999908,563.354431 195.999802,506.000000 
	C196.001434,505.998779 196.007324,505.992676 196.474762,505.995422 
	C202.960449,505.999207 208.978699,506.000214 214.996948,506.001221 
z"/>
<path fill="#DADDE5" opacity="1.000000" stroke="none" 
	d="
M350.989319,622.516357 
	C344.967773,622.989136 338.952637,622.995361 332.469360,623.004395 
	C332.001587,616.647949 332.001923,610.288635 332.005524,603.459778 
	C338.034180,602.995728 344.059601,603.001160 350.556274,603.015381 
	C351.016968,609.365967 351.006348,615.707886 350.989319,622.516357 
z"/>
<path fill="#E0E7F0" opacity="1.000000" stroke="none" 
	d="
M487.012054,97.983772 
	C487.007782,103.677757 487.003510,109.371735 486.998413,115.533920 
	C474.314026,116.335365 461.630463,116.668610 448.475433,116.534729 
	C448.000183,110.043381 447.996429,104.019150 447.994690,97.526779 
	C447.991913,84.373489 447.987122,71.688332 447.982300,59.003178 
	C447.985718,58.836086 447.989136,58.668991 447.998108,58.251263 
	C452.825836,57.999683 457.650452,57.906101 462.469360,58.031036 
	C465.573730,58.111515 467.252350,57.013802 466.998077,53.719845 
	C466.985321,53.554630 467.002411,53.387333 466.998688,53.221157 
	C466.658783,37.995422 466.677551,40.151661 480.574860,40.002827 
	C482.403748,39.983238 484.233063,39.999939 486.529846,39.999458 
	C486.999756,46.025406 487.001923,52.051731 487.002258,58.539375 
	C487.000427,59.000698 487.011810,59.002735 486.542175,59.000866 
	C481.288055,58.999378 476.500458,59.104778 471.720398,58.959782 
	C468.961273,58.876091 467.883392,59.871723 467.957947,62.676041 
	C468.102631,68.116585 468.001160,73.563660 468.000793,79.475677 
	C468.000244,84.729828 468.108337,89.519669 467.959717,94.301537 
	C467.873108,97.088760 468.921997,98.121056 471.702454,98.036652 
	C476.814575,97.881454 481.934113,97.970276 487.047028,97.973297 
	C487.043518,97.989204 487.012054,97.983772 487.012054,97.983772 
z"/>
<path fill="#DADDE5" opacity="1.000000" stroke="none" 
	d="
M447.992676,97.994904 
	C447.996429,104.019150 448.000183,110.043381 448.008331,116.536491 
	C448.007568,123.357132 448.002441,129.708908 447.994385,136.528717 
	C441.973511,136.997391 435.955536,136.998047 429.468658,136.530212 
	C429.000793,125.115990 429.112488,114.168526 428.942535,103.225433 
	C428.883453,99.421211 430.069763,97.737076 434.064697,97.945297 
	C438.695648,98.186653 443.349030,97.997292 447.992676,97.994904 
z"/>
<path fill="#9CA4AD" opacity="1.000000" stroke="none" 
	d="
M157.000183,428.099670 
	C150.988068,428.061371 144.975937,428.023071 138.485489,427.501587 
	C138.005997,421.013641 138.004837,415.008881 138.471893,409.002350 
	C149.092194,408.999573 159.244263,409.000031 169.396317,408.997070 
	C175.994965,408.995178 175.995224,408.992950 175.998062,402.153778 
	C175.999161,399.490936 176.175171,396.813446 175.954865,394.168976 
	C175.675629,390.817261 177.091644,389.856873 180.288757,389.944519 
	C187.107101,390.131439 193.936111,390.097565 200.757034,389.964630 
	C205.342545,389.875275 211.388763,391.094788 214.058716,388.696930 
	C216.366943,386.623993 215.172623,380.256317 214.908081,375.824036 
	C214.642075,371.367371 215.864609,369.798370 220.638367,369.883392 
	C235.624374,370.150208 235.628006,369.943481 235.001709,354.944458 
	C234.994766,354.778290 234.982574,354.610016 234.999313,354.445465 
	C235.264709,351.835815 234.038498,350.916931 231.492966,350.967560 
	C226.003082,351.076752 220.509460,350.998871 215.013702,350.529419 
	C215.022186,343.725250 215.034332,337.389252 215.512085,331.041870 
	C241.652695,331.042328 267.327728,331.054138 293.002258,331.527008 
	C293.006409,338.319885 293.011047,344.651642 292.546265,350.988831 
	C287.266998,350.997223 282.444427,350.810455 277.655823,351.130829 
	C276.388153,351.215637 274.229462,352.811127 274.179138,353.799438 
	C273.901672,359.249542 273.832825,364.752686 274.282379,370.188873 
	C275.351196,383.113312 276.750793,396.010437 277.621338,408.953217 
	C276.172729,409.012665 275.119446,409.037476 273.593811,409.045044 
	C268.291382,409.020630 263.446106,409.246246 258.635956,408.932983 
	C254.757614,408.680359 253.719025,410.200775 253.931122,413.829834 
	C254.202789,418.477692 254.001419,423.153168 253.537292,427.863159 
	C240.383118,427.962280 227.695511,428.014984 214.539505,428.039764 
	C195.047470,428.041077 176.023819,428.070374 157.000183,428.099670 
z"/>
<path fill="#CAD3DC" opacity="1.000000" stroke="none" 
	d="
M157.000092,428.558533 
	C176.023819,428.070374 195.047470,428.041077 214.536194,428.501160 
	C214.997086,435.319305 214.992905,441.648041 214.993195,447.986084 
	C214.997665,447.995361 215.007980,448.013000 214.538544,448.006104 
	C201.381821,448.005371 188.694534,448.011566 175.538544,448.011963 
	C169.046570,448.002533 163.023285,447.998810 157.000000,447.995117 
	C157.000000,441.669220 157.000000,435.343323 157.000092,428.558533 
z"/>
<path fill="#C5CAD2" opacity="1.000000" stroke="none" 
	d="
M98.989456,370.440613 
	C98.993690,363.970276 99.004730,357.971405 99.031448,351.509705 
	C105.039658,351.027313 111.032196,351.007690 117.487587,350.979431 
	C124.322899,350.981232 130.695358,350.991699 137.534546,351.471680 
	C138.001251,357.961365 138.001251,363.981506 138.000626,370.000824 
	C138.000000,370.000000 138.001831,370.001221 137.533142,369.999878 
	C131.951599,369.998901 126.835938,370.100220 121.726990,369.959076 
	C118.976112,369.883057 117.884491,370.857666 117.958755,373.668091 
	C118.102470,379.106964 117.998100,384.552399 117.998276,389.997559 
	C118.000000,390.000000 117.995125,389.996338 117.527405,389.997681 
	C111.042549,390.001343 105.025414,390.003723 99.008286,390.006104 
	C99.004280,383.641418 99.000267,377.276733 98.989456,370.440613 
z"/>
<path fill="#D8E0EA" opacity="1.000000" stroke="none" 
	d="
M156.531555,447.998444 
	C163.023285,447.998810 169.046570,448.002533 175.535797,448.478638 
	C176.002975,461.632416 176.004227,474.313751 176.003052,486.997559 
	C176.000595,487.000000 175.996338,487.003662 175.996338,487.003662 
	C171.361145,487.002014 166.704483,486.723022 162.096985,487.079376 
	C157.784912,487.412933 156.609955,485.681946 156.937302,481.685242 
	C157.233597,478.067627 156.884796,474.401764 157.035248,470.766083 
	C157.148544,468.028687 156.192917,466.868042 153.343369,466.959045 
	C148.547562,467.112244 143.743240,466.998230 138.474823,466.994019 
	C138.006577,461.883240 138.112259,456.771942 137.963287,451.668060 
	C137.881241,448.857208 138.980865,447.883606 141.728363,447.966309 
	C146.502640,448.109985 151.284439,448.003418 156.531555,447.998444 
z"/>
<path fill="#ADB4BD" opacity="1.000000" stroke="none" 
	d="
M138.003662,409.004089 
	C138.004837,415.008881 138.005997,421.013641 138.019669,427.480499 
	C131.675293,427.959930 125.318398,427.977264 118.483536,427.522156 
	C117.994995,421.037903 117.984436,415.026062 117.982269,408.544556 
	C117.992149,402.048706 117.993637,396.022522 117.995125,389.996338 
	C117.995125,389.996338 118.000000,390.000000 118.467064,389.997192 
	C125.283218,389.988525 131.632309,389.982666 137.986816,390.446472 
	C137.996033,396.945465 137.999847,402.974792 138.003662,409.004089 
z"/>
<path fill="#C5CAD2" opacity="1.000000" stroke="none" 
	d="
M117.973877,409.014221 
	C117.984436,415.026062 117.994995,421.037903 118.016945,427.515930 
	C112.913887,427.987122 107.796387,427.888214 102.686211,428.038513 
	C99.889427,428.120819 98.877235,427.052368 98.961922,424.284912 
	C99.108200,419.504883 99.002449,414.717163 99.471962,409.466125 
	C105.952278,409.004517 111.963081,409.009369 117.973877,409.014221 
z"/>
<path fill="#BEC2CA" opacity="1.000000" stroke="none" 
	d="
M117.982269,408.544556 
	C111.963081,409.009369 105.952278,409.004517 99.473946,408.997375 
	C99.004478,402.977142 99.002541,396.959198 99.004448,390.473663 
	C105.025414,390.003723 111.042549,390.001343 117.527405,389.997681 
	C117.993637,396.022522 117.992149,402.048706 117.982269,408.544556 
z"/>
<path fill="#CFD7E0" opacity="1.000000" stroke="none" 
	d="
M447.994690,97.526779 
	C443.349030,97.997292 438.695648,98.186653 434.064697,97.945297 
	C430.069763,97.737076 428.883453,99.421211 428.942535,103.225433 
	C429.112488,114.168526 429.000793,125.115990 429.000488,136.530258 
	C428.999908,188.329681 428.998566,239.660583 429.001282,291.449646 
	C422.987122,291.940399 416.968964,291.973053 410.477478,291.543152 
	C410.002777,266.053772 410.001404,241.026886 410.000000,215.531342 
	C410.000000,193.772827 410.000031,172.482956 410.000000,151.193100 
	C410.000000,136.645111 409.999969,136.645050 395.524170,135.998642 
	C395.358124,135.991226 395.191132,135.987686 395.025269,135.996033 
	C392.370972,136.129562 391.073517,134.987442 390.976990,132.212479 
	C390.735382,125.266373 390.127197,118.328232 390.044830,111.382401 
	C389.888916,98.231766 389.999237,98.230461 402.893463,97.999474 
	C408.458862,97.899773 409.958588,96.450218 409.987152,90.865425 
	C410.033936,81.717674 410.144165,72.566116 409.928497,63.423222 
	C409.844360,59.855736 411.107819,58.775501 414.531189,58.941959 
	C419.343292,59.175938 424.175293,59.000206 428.998779,58.999695 
	C435.015778,59.000156 441.032745,59.000618 447.516022,59.002129 
	C447.987122,71.688332 447.991913,84.373489 447.994690,97.526779 
z"/>
<path fill="#E0E7F0" opacity="1.000000" stroke="none" 
	d="
M331.989502,528.002441 
	C327.323090,528.000549 322.655670,528.059082 317.990631,527.978210 
	C314.119446,527.911133 311.938995,526.422119 311.913971,521.953247 
	C311.859161,512.161804 311.246277,502.374908 311.033264,492.582428 
	C310.908356,486.842194 312.760590,485.079224 318.341064,485.000092 
	C329.826691,484.837219 329.792145,484.836456 330.036469,473.195862 
	C330.074097,471.402893 330.596344,469.620087 331.414551,467.416565 
	C336.955841,466.999969 341.977020,466.999390 347.420776,466.996765 
	C348.893860,465.935547 350.738312,464.953613 350.850342,463.803009 
	C351.230255,459.900452 350.997467,455.938202 350.998779,451.530334 
	C351.000031,444.375397 351.001221,437.688934 351.417450,430.948547 
	C358.217987,430.595245 364.603485,430.295807 370.993530,430.465210 
	C371.001953,442.954346 371.005859,454.974670 371.009766,466.994965 
	C371.006592,472.126282 371.230499,477.271118 370.925873,482.384491 
	C370.696411,486.235901 372.202301,487.137634 375.796967,487.072906 
	C386.883636,486.873230 397.976196,487.001160 409.535645,487.005463 
	C410.003143,493.022858 410.001495,499.036682 409.530029,505.522827 
	C404.081543,505.996704 399.094879,506.170868 394.127045,505.939667 
	C390.756592,505.782837 389.782379,507.130890 389.948792,510.296509 
	C390.157623,514.268433 389.883392,518.264160 390.035797,522.241150 
	C390.141296,524.993652 389.185211,526.171021 386.331573,526.042236 
	C382.688019,525.877869 379.015747,526.214905 375.384735,525.945984 
	C371.776245,525.678650 370.787811,527.173584 370.944427,530.549500 
	C371.167145,535.351562 370.989746,540.172180 370.990845,544.991943 
	C370.998383,544.999084 370.993561,544.990906 370.525818,544.994324 
	C363.701263,545.004395 357.344482,545.011047 350.996338,545.003906 
	C351.005005,544.990112 351.020325,544.961243 351.013611,544.496521 
	C351.004608,529.747070 351.001373,515.462341 351.000244,501.177582 
	C350.999084,486.800201 350.998901,486.977264 336.808258,486.890045 
	C332.599762,486.864166 331.876007,488.445251 331.930908,492.125549 
	C332.109283,504.082123 331.992584,516.043152 331.989502,528.002441 
z"/>
<path fill="#D6D9DE" opacity="1.000000" stroke="none" 
	d="
M371.476807,466.996155 
	C371.005859,454.974670 371.001953,442.954346 370.997681,429.997070 
	C371.003906,422.376953 371.010437,415.693756 371.484192,409.008179 
	C377.967194,409.005035 383.983002,409.004333 389.998779,409.003662 
	C389.998779,426.439056 389.887939,443.875641 390.077484,461.308990 
	C390.124298,465.614746 388.823120,467.385223 384.393036,467.062561 
	C380.263641,466.761810 376.095123,466.997681 371.476807,466.996155 
z"/>
<path fill="#D8E0EA" opacity="1.000000" stroke="none" 
	d="
M389.999207,408.535004 
	C383.983002,409.004333 377.967194,409.005035 371.478760,408.538727 
	C371.004059,402.045441 371.002045,396.019165 370.999878,389.525208 
	C371.001434,382.706665 371.003174,376.355774 371.472839,370.002319 
	C377.955750,369.995667 383.970734,369.991577 389.985657,369.987457 
	C389.990326,376.346039 389.994995,382.704590 389.999207,389.531586 
	C389.999084,396.022125 389.999359,402.044220 389.999207,408.535004 
z"/>
<path fill="#C5CAD2" opacity="1.000000" stroke="none" 
	d="
M175.993393,681.007751 
	C169.979523,681.006653 163.958191,680.992615 157.469604,680.945435 
	C157.001495,648.919373 157.000641,616.926453 156.994324,584.464355 
	C156.996536,569.975220 157.004196,555.955261 157.004593,541.466431 
	C156.996658,529.644470 156.995987,518.291321 156.992142,506.469727 
	C163.015686,505.999268 169.042419,505.997314 175.535034,505.997375 
	C176.000916,505.999420 176.009216,505.993591 176.007812,506.462891 
	C175.997986,564.943542 175.989563,622.954834 175.981125,680.966187 
	C175.981125,680.966187 175.985931,680.994751 175.993393,681.007751 
z"/>
<path fill="#C5CAD2" opacity="1.000000" stroke="none" 
	d="
M274.019775,40.452110 
	C299.377869,39.989037 324.721893,39.995808 350.533417,40.471931 
	C351.000610,43.271187 351.000061,45.601093 351.000031,47.930996 
	C350.999939,60.439137 351.000000,60.439369 338.516296,61.000992 
	C338.183990,61.015945 337.729370,60.873264 337.537842,61.040321 
	C336.334534,62.089901 334.320679,63.094540 334.162994,64.318604 
	C332.906830,74.071579 331.863770,83.858955 331.078064,93.661636 
	C330.821075,96.867851 329.685242,98.157242 326.527435,98.026680 
	C323.370911,97.896164 320.203400,98.055595 317.042816,97.988892 
	C314.395325,97.933022 313.085968,98.988708 312.980774,101.774414 
	C312.368103,118.000298 311.461487,134.218170 311.089386,150.448730 
	C310.907532,158.382370 311.730286,166.335648 311.975159,174.283813 
	C312.113495,178.773041 311.895935,183.273087 312.028595,187.762650 
	C312.211090,193.937775 313.352966,194.982071 319.373077,194.999466 
	C321.702972,195.006195 324.269989,194.399185 326.293365,195.188477 
	C328.162231,195.917496 330.615570,198.020706 330.790741,199.726196 
	C331.584869,207.458191 331.831848,215.260910 331.958527,223.043320 
	C332.126434,233.358887 331.999176,243.679260 331.530212,253.998199 
	C318.366974,254.005478 305.672333,254.012146 292.977692,254.018799 
	C292.977692,254.018799 292.989349,254.005356 292.984222,254.015106 
	C292.985657,242.784683 292.839386,231.541214 293.080963,220.306076 
	C293.166443,216.330002 292.219757,214.564117 287.910950,214.922318 
	C283.642578,215.277191 279.321899,215.003052 274.567749,215.013229 
	C274.068237,202.330490 274.025177,189.639328 273.954956,176.481628 
	C273.947021,163.327103 273.966309,150.639130 273.967041,137.484680 
	C273.959259,111.319023 273.970093,85.619827 273.959076,59.450195 
	C273.960022,52.960491 273.982849,46.941219 274.019775,40.452110 
z"/>
<path fill="#D8E0EA" opacity="1.000000" stroke="none" 
	d="
M176.003708,505.995087 
	C176.004318,499.973633 176.002136,493.956512 175.998138,487.471527 
	C175.996338,487.003662 176.000595,487.000000 176.470917,486.999268 
	C182.050964,486.999634 187.163452,487.101349 192.269287,486.961365 
	C195.014557,486.886139 196.119370,487.852142 196.039368,490.664734 
	C195.894135,495.770233 196.003967,500.882965 196.007324,505.992676 
	C196.007324,505.992676 196.001434,505.998779 195.531616,505.998077 
	C188.710938,505.996094 182.360077,505.994843 176.009216,505.993591 
	C176.009216,505.993591 176.000916,505.999420 176.003708,505.995087 
z"/>
<path fill="#CCD0DA" opacity="1.000000" stroke="none" 
	d="
M292.981873,254.485168 
	C305.672333,254.012146 318.366974,254.005478 331.998962,253.998978 
	C347.406860,253.999222 361.878662,254.121353 376.347504,253.965805 
	C391.437714,253.803604 389.856873,256.995575 390.049774,239.614410 
	C390.094025,235.628998 387.953339,234.253235 384.591919,234.054169 
	C381.442383,233.867630 378.271545,233.924149 375.114349,234.017822 
	C372.116669,234.106796 371.027588,232.723404 370.966492,229.801514 
	C370.723785,218.199554 370.335510,206.600647 370.346924,194.805115 
	C371.128540,190.423218 371.427612,186.216049 372.059113,182.059387 
	C372.365997,180.039276 373.016357,176.588455 373.990173,176.410812 
	C378.071625,175.666245 382.527802,175.156067 386.440521,176.153442 
	C388.134094,176.585144 389.721558,180.837158 389.840790,183.423767 
	C390.253906,192.385788 390.092010,201.379898 389.955505,210.358856 
	C389.903015,213.812744 391.253632,215.027405 394.669220,215.069122 
	C399.782501,215.131592 404.890015,215.666199 410.000000,216.000000 
	C410.001404,241.026886 410.002777,266.053772 410.010315,291.551758 
	C410.016418,292.022858 410.000946,292.003723 409.536896,292.002808 
	C404.102020,292.002716 399.130005,292.068970 394.160797,291.979675 
	C391.223755,291.926880 389.928772,293.162933 389.979675,296.126709 
	C390.070740,301.427399 390.010071,306.730713 390.012817,312.032928 
	C390.002747,318.040192 389.992706,324.047455 389.504730,330.525696 
	C384.249176,330.998322 379.468323,331.106537 374.695221,330.960938 
	C371.917389,330.876160 370.888641,331.919952 370.959747,334.696167 
	C371.098907,340.129120 370.996399,345.568298 370.526215,351.003296 
	C363.709412,350.997375 357.360321,350.993073 351.006958,350.521545 
	C351.001007,344.944061 350.898193,339.830994 351.038422,334.724609 
	C351.114014,331.971985 350.133148,330.880951 347.327240,330.961578 
	C342.221161,331.108246 337.107849,331.001953 331.529297,330.998657 
	C324.705139,330.999542 318.349243,331.003021 311.996582,331.000732 
	C311.999817,330.994965 312.009033,330.984802 312.005188,330.517853 
	C311.999756,325.271118 311.892487,320.488159 312.037109,315.712799 
	C312.120789,312.948669 311.109955,311.880829 308.316040,311.962006 
	C303.210846,312.110321 298.098419,312.009216 292.521057,312.009644 
	C279.368927,312.004761 266.684753,312.002380 253.999908,311.531616 
	C254.005417,304.730560 254.011627,298.397919 254.017838,292.065247 
	C254.017838,292.065247 253.984512,291.996674 253.976334,291.958618 
	C260.324493,291.943085 266.680817,291.965668 273.975342,291.990723 
	C279.702148,291.994843 284.494080,291.890961 289.278198,292.038727 
	C292.043793,292.124207 293.123657,291.122009 293.038208,288.317291 
	C292.882446,283.202942 292.975494,278.080963 292.964722,272.962189 
	C292.971832,266.958649 292.978943,260.955078 292.981873,254.485168 
z"/>
<path fill="#CFD7E0" opacity="1.000000" stroke="none" 
	d="
M370.993896,351.004883 
	C370.996399,345.568298 371.098907,340.129120 370.959747,334.696167 
	C370.888641,331.919952 371.917389,330.876160 374.695221,330.960938 
	C379.468323,331.106537 384.249176,330.998322 389.490143,330.993042 
	C389.968842,337.345703 389.984222,343.701904 390.005371,350.525818 
	C390.004761,357.013580 389.998322,363.033661 389.988770,369.520630 
	C383.970734,369.991577 377.955750,369.995667 371.469543,369.999023 
	C370.998322,369.998322 370.991455,369.991455 370.994141,369.524048 
	C370.995850,363.039398 370.994873,357.022156 370.993896,351.004883 
z"/>
<path fill="#CED2D9" opacity="1.000000" stroke="none" 
	d="
M390.479828,312.020630 
	C390.010071,306.730713 390.070740,301.427399 389.979675,296.126709 
	C389.928772,293.162933 391.223755,291.926880 394.160797,291.979675 
	C399.130005,292.068970 404.102020,292.002716 409.542480,292.004486 
	C410.003113,298.352051 409.994080,304.697021 409.968414,311.506958 
	C403.616791,311.984100 397.281830,311.996246 390.479828,312.020630 
z"/>
<path fill="#BEC2CA" opacity="1.000000" stroke="none" 
	d="
M157.010132,331.502289 
	C163.028915,331.023560 169.040924,331.009308 175.534943,331.005920 
	C176.016968,331.016846 176.045685,331.045227 176.031494,331.508392 
	C176.013474,337.077026 175.907547,342.185303 176.046783,347.286865 
	C176.122009,350.042480 175.130554,351.119202 172.333679,351.041656 
	C167.232300,350.900208 162.123917,351.012085 157.009842,351.009705 
	C157.001236,351.001099 156.982635,350.982544 156.982635,350.982544 
	C156.989548,344.643951 156.996445,338.305328 157.010132,331.502289 
z"/>
<path fill="#BEC2CA" opacity="1.000000" stroke="none" 
	d="
M138.001251,370.001648 
	C138.001251,363.981506 138.001251,357.961365 138.003265,351.473663 
	C144.020218,351.002197 150.035172,350.998291 156.516373,350.988464 
	C156.982635,350.982544 157.001236,351.001099 157.003662,351.475830 
	C157.000977,357.964966 156.995850,363.979309 156.523041,369.996155 
	C150.037308,369.999603 144.019287,370.000610 138.001251,370.001648 
z"/>
<path fill="#CFD7E0" opacity="1.000000" stroke="none" 
	d="
M176.007812,506.462891 
	C182.360077,505.994843 188.710938,505.996094 195.529984,505.999298 
	C195.999908,563.354431 196.001648,620.707581 196.005371,678.529175 
	C194.739792,679.664856 193.494827,680.851562 192.200714,680.907837 
	C187.116180,681.128967 182.016190,680.994019 176.451538,680.978760 
	C175.989563,622.954834 175.997986,564.943542 176.007812,506.462891 
z"/>
<path fill="#CFD7E0" opacity="1.000000" stroke="none" 
	d="
M506.507599,59.016907 
	C506.989532,65.361641 507.005951,71.696678 507.052826,78.494911 
	C507.083313,78.958107 507.000336,79.008194 506.498962,79.011520 
	C499.673370,79.018509 493.349121,79.022163 487.018097,78.554909 
	C487.011475,71.723572 487.011627,65.363152 487.011810,59.002735 
	C487.011810,59.002735 487.000427,59.000698 487.005981,59.008675 
	C493.355042,59.013508 499.698547,59.010361 506.507599,59.016907 
z"/>
<path fill="#BEC2CA" opacity="1.000000" stroke="none" 
	d="
M332.504547,584.001099 
	C332.027588,571.320740 332.015228,558.640808 332.475525,545.479736 
	C338.972229,544.986145 344.996277,544.973694 351.020325,544.961243 
	C351.020325,544.961243 351.005005,544.990112 351.001343,545.470459 
	C350.999542,550.730042 351.107269,555.512512 350.962555,560.287292 
	C350.878845,563.049561 351.884979,564.112122 354.680237,564.039551 
	C360.114899,563.898376 365.556000,564.003967 370.997192,564.004822 
	C371.000000,564.002319 371.001221,564.000000 371.001221,564.000000 
	C370.993683,570.344482 370.986176,576.688965 370.950623,583.496826 
	C358.271393,583.973938 345.620270,583.987732 332.504547,584.001099 
z"/>
<path fill="#CED2D9" opacity="1.000000" stroke="none" 
	d="
M370.983276,544.984863 
	C370.989746,540.172180 371.167145,535.351562 370.944427,530.549500 
	C370.787811,527.173584 371.776245,525.678650 375.384735,525.945984 
	C379.015747,526.214905 382.688019,525.877869 386.331573,526.042236 
	C389.185211,526.171021 390.141296,524.993652 390.035797,522.241150 
	C389.883392,518.264160 390.157623,514.268433 389.948792,510.296509 
	C389.782379,507.130890 390.756592,505.782837 394.127045,505.939667 
	C399.094879,506.170868 404.081543,505.996704 409.528259,505.990173 
	C410.001007,512.356445 410.005676,518.727661 410.019958,525.572266 
	C410.016693,532.048584 410.003815,538.051575 409.973511,544.521118 
	C403.622345,544.992859 397.288605,544.997986 390.017212,545.001587 
	C383.047455,544.994995 377.015350,544.989929 370.983276,544.984863 
z"/>
<path fill="#CAD3DC" opacity="1.000000" stroke="none" 
	d="
M410.000000,215.531342 
	C404.890015,215.666199 399.782501,215.131592 394.669220,215.069122 
	C391.253632,215.027405 389.903015,213.812744 389.955505,210.358856 
	C390.092010,201.379898 390.253906,192.385788 389.840790,183.423767 
	C389.721558,180.837158 388.134094,176.585144 386.440521,176.153442 
	C382.527802,175.156067 378.071625,175.666245 373.990173,176.410812 
	C373.016357,176.588455 372.365997,180.039276 372.059113,182.059387 
	C371.427612,186.216049 371.128540,190.423218 369.964172,194.638306 
	C365.274780,194.443604 361.315582,194.092392 357.352417,194.039932 
	C354.528625,194.002533 353.212799,193.094238 352.939209,190.032501 
	C351.765747,176.898148 349.733765,163.811630 349.177246,150.658478 
	C348.508575,134.854568 348.946259,119.000092 349.079071,103.168961 
	C349.108032,99.719925 350.982239,97.701637 354.872162,97.952614 
	C358.357422,98.177490 361.871429,97.911469 365.367737,98.021500 
	C369.414520,98.148849 370.976562,96.258217 371.050659,92.279068 
	C371.223724,82.986214 371.763580,73.700333 371.950745,64.407516 
	C372.015228,61.205795 373.222534,60.015011 376.417297,59.950588 
	C385.710083,59.763203 394.995911,59.222965 404.288727,59.049679 
	C408.273773,58.975365 409.998718,57.393276 410.059937,53.359768 
	C410.127563,48.904060 410.667938,44.455528 411.002441,40.003872 
	C416.687897,40.002625 422.373322,40.001377 428.525940,39.997372 
	C428.994995,46.017483 428.996887,52.040352 428.998779,58.531456 
	C424.175293,59.000206 419.343292,59.175938 414.531189,58.941959 
	C411.107819,58.775501 409.844360,59.855736 409.928497,63.423222 
	C410.144165,72.566116 410.033936,81.717674 409.987152,90.865425 
	C409.958588,96.450218 408.458862,97.899773 402.893463,97.999474 
	C389.999237,98.230461 389.888916,98.231766 390.044830,111.382401 
	C390.127197,118.328232 390.735382,125.266373 390.976990,132.212479 
	C391.073517,134.987442 392.370972,136.129562 395.025269,135.996033 
	C395.191132,135.987686 395.358124,135.991226 395.524170,135.998642 
	C409.999969,136.645050 410.000000,136.645111 410.000000,151.193100 
	C410.000031,172.482956 410.000000,193.772827 410.000000,215.531342 
z"/>
<path fill="#BEC2CA" opacity="1.000000" stroke="none" 
	d="
M254.000610,312.000000 
	C266.684753,312.002380 279.368927,312.004761 292.524109,312.476562 
	C292.995270,318.946564 292.995331,324.947235 292.997559,330.977356 
	C292.999725,331.006866 293.002747,331.065918 293.002747,331.065918 
	C267.327728,331.054138 241.652695,331.042328 215.038528,331.024750 
	C201.414810,331.027710 188.730255,331.036469 176.045685,331.045227 
	C176.045685,331.045227 176.016968,331.016846 176.002441,331.002411 
	C175.994629,325.003937 176.001358,319.019928 176.005844,312.581360 
	C182.347580,312.083313 188.691528,312.039825 195.499878,311.977051 
	C201.996460,311.974579 208.028656,311.991425 214.528717,311.999847 
	C221.351151,311.995270 227.705765,311.999084 234.997192,312.001953 
	C241.956223,312.000641 247.978409,312.000336 254.000610,312.000000 
z"/>
<path fill="#C5CAD2" opacity="1.000000" stroke="none" 
	d="
M253.999908,311.531616 
	C247.978409,312.000336 241.956223,312.000641 235.465393,311.999268 
	C234.997330,305.673401 234.997894,299.349274 234.992401,292.569092 
	C241.016922,292.082153 247.047501,292.051239 253.547974,292.042786 
	C254.011627,298.397919 254.005417,304.730560 253.999908,311.531616 
z"/>
<path fill="#A6AEB6" opacity="1.000000" stroke="none" 
	d="
M487.024872,79.025826 
	C493.349121,79.022163 499.673370,79.018509 506.456238,79.034363 
	C506.934875,85.027634 506.954865,91.001389 506.945679,97.431259 
	C500.593048,97.924759 494.269653,97.962151 487.479126,97.991653 
	C487.012054,97.983772 487.043518,97.989204 487.028503,97.509613 
	C487.015045,91.025299 487.016571,85.020584 487.011536,79.010178 
	C487.004974,79.004494 487.024872,79.025826 487.024872,79.025826 
z"/>
<path fill="#C5CAD2" opacity="1.000000" stroke="none" 
	d="
M370.990845,544.991943 
	C377.015350,544.989929 383.047455,544.994995 389.550110,545.002258 
	C390.012634,551.020691 390.004578,557.036987 389.971924,563.519531 
	C383.944031,563.991089 377.940765,563.996399 371.469360,564.000854 
	C371.001221,564.000000 371.000000,564.002319 370.998901,563.535706 
	C370.996399,557.043030 370.994995,551.016968 370.993561,544.990906 
	C370.993561,544.990906 370.998383,544.999084 370.990845,544.991943 
z"/>
<path fill="#DADDE5" opacity="1.000000" stroke="none" 
	d="
M292.500122,272.974182 
	C292.975494,278.080963 292.882446,283.202942 293.038208,288.317291 
	C293.123657,291.122009 292.043793,292.124207 289.278198,292.038727 
	C284.494080,291.890961 279.702148,291.994843 274.441833,291.983063 
	C273.980194,285.964264 273.990295,279.955566 274.006897,273.480164 
	C280.020782,273.004333 286.028168,272.995239 292.500122,272.974182 
z"/>
<path fill="#C6CED7" opacity="1.000000" stroke="none" 
	d="
M410.750610,40.002048 
	C410.667938,44.455528 410.127563,48.904060 410.059937,53.359768 
	C409.998718,57.393276 408.273773,58.975365 404.288727,59.049679 
	C394.995911,59.222965 385.710083,59.763203 376.417297,59.950588 
	C373.222534,60.015011 372.015228,61.205795 371.950745,64.407516 
	C371.763580,73.700333 371.223724,82.986214 371.050659,92.279068 
	C370.976562,96.258217 369.414520,98.148849 365.367737,98.021500 
	C361.871429,97.911469 358.357422,98.177490 354.872162,97.952614 
	C350.982239,97.701637 349.108032,99.719925 349.079071,103.168961 
	C348.946259,119.000092 348.508575,134.854568 349.177246,150.658478 
	C349.733765,163.811630 351.765747,176.898148 352.939209,190.032501 
	C353.212799,193.094238 354.528625,194.002533 357.352417,194.039932 
	C361.315582,194.092392 365.274780,194.443604 369.618439,194.833817 
	C370.335510,206.600647 370.723785,218.199554 370.966492,229.801514 
	C371.027588,232.723404 372.116669,234.106796 375.114349,234.017822 
	C378.271545,233.924149 381.442383,233.867630 384.591919,234.054169 
	C387.953339,234.253235 390.094025,235.628998 390.049774,239.614410 
	C389.856873,256.995575 391.437714,253.803604 376.347504,253.965805 
	C361.878662,254.121353 347.406860,253.999222 332.467560,253.998352 
	C331.999176,243.679260 332.126434,233.358887 331.958527,223.043320 
	C331.831848,215.260910 331.584869,207.458191 330.790741,199.726196 
	C330.615570,198.020706 328.162231,195.917496 326.293365,195.188477 
	C324.269989,194.399185 321.702972,195.006195 319.373077,194.999466 
	C313.352966,194.982071 312.211090,193.937775 312.028595,187.762650 
	C311.895935,183.273087 312.113495,178.773041 311.975159,174.283813 
	C311.730286,166.335648 310.907532,158.382370 311.089386,150.448730 
	C311.461487,134.218170 312.368103,118.000298 312.980774,101.774414 
	C313.085968,98.988708 314.395325,97.933022 317.042816,97.988892 
	C320.203400,98.055595 323.370911,97.896164 326.527435,98.026680 
	C329.685242,98.157242 330.821075,96.867851 331.078064,93.661636 
	C331.863770,83.858955 332.906830,74.071579 334.162994,64.318604 
	C334.320679,63.094540 336.334534,62.089901 337.537842,61.040321 
	C337.729370,60.873264 338.183990,61.015945 338.516296,61.000992 
	C351.000000,60.439369 350.999939,60.439137 351.000031,47.930996 
	C351.000061,45.601093 351.000610,43.271187 351.002289,40.474457 
	C370.355408,40.005226 389.707153,40.002827 409.527039,39.998806 
	C410.163055,39.998199 410.330933,39.999214 410.750610,40.002048 
z"/>
<path fill="#E5ECF7" opacity="1.000000" stroke="none" 
	d="
M346.998230,466.998779 
	C341.977020,466.999390 336.955841,466.999969 331.467926,467.001526 
	C319.859619,467.002075 308.715027,467.150970 297.578003,466.924988 
	C293.358276,466.839325 291.816803,468.579163 291.994995,472.494629 
	C292.040314,473.490295 292.010437,474.489960 291.998505,475.487549 
	C291.839600,488.761597 293.756195,486.756653 280.234772,487.026459 
	C270.629883,487.218109 261.021912,488.064270 251.429855,487.876099 
	C240.546356,487.662567 229.668442,486.738983 218.821640,485.754639 
	C217.761566,485.658478 216.287674,483.040100 216.124634,481.475861 
	C215.645370,476.877777 215.729858,472.220886 215.296753,466.825256 
	C215.002594,460.046661 215.005295,454.029816 215.007980,448.013000 
	C215.007980,448.013000 214.997665,447.995361 215.463074,447.995148 
	C228.608948,447.990662 241.289398,447.986359 254.441803,447.988770 
	C265.839111,447.662415 276.763000,447.249268 287.690796,447.045288 
	C290.950073,446.984436 292.112518,445.632324 292.031281,442.503021 
	C291.906250,437.686981 292.004913,432.865112 292.251465,428.031036 
	C292.494263,428.016357 292.979950,427.988251 293.450806,427.992737 
	C304.891296,427.997742 315.861267,428.041443 326.830200,427.954102 
	C328.556305,427.940338 330.277679,427.332947 332.469177,427.000000 
	C337.555084,427.000702 342.174591,427.074341 346.790436,426.975311 
	C349.659393,426.913727 351.201355,427.981720 351.002441,431.002441 
	C351.001221,437.688934 351.000031,444.375397 350.604248,451.620514 
	C349.806427,454.002411 349.395996,455.824097 349.001648,457.649292 
	C348.328552,460.764618 347.665497,463.882172 346.998230,466.998779 
z"/>
<path fill="#DEE5EF" opacity="1.000000" stroke="none" 
	d="
M214.538544,448.006104 
	C215.005295,454.029816 215.002594,460.046661 214.999649,466.531738 
	C211.766174,473.766052 211.540436,480.540619 215.488663,487.046783 
	C218.836411,492.563416 219.137161,501.662079 215.373978,505.932922 
	C208.978699,506.000214 202.960449,505.999207 196.474762,505.995422 
	C196.003967,500.882965 195.894135,495.770233 196.039368,490.664734 
	C196.119370,487.852142 195.014557,486.886139 192.269287,486.961365 
	C187.163452,487.101349 182.050964,486.999634 176.473373,486.996826 
	C176.004227,474.313751 176.002975,461.632416 176.004486,448.484375 
	C188.694534,448.011566 201.381821,448.005371 214.538544,448.006104 
z"/>
<path fill="#D8E0EA" opacity="1.000000" stroke="none" 
	d="
M351.013611,544.496521 
	C344.996277,544.973694 338.972229,544.986145 332.481689,545.012817 
	C332.008423,539.663696 332.001617,534.300415 331.992188,528.469788 
	C331.992584,516.043152 332.109283,504.082123 331.930908,492.125549 
	C331.876007,488.445251 332.599762,486.864166 336.808258,486.890045 
	C350.998901,486.977264 350.999084,486.800201 351.000244,501.177582 
	C351.001373,515.462341 351.004608,529.747070 351.013611,544.496521 
z"/>
<path fill="#EDF2F5" opacity="1.000000" stroke="none" 
	d="
M486.542175,59.000866 
	C487.011627,65.363152 487.011475,71.723572 487.018097,78.554909 
	C487.024872,79.025826 487.004974,79.004494 486.541504,79.005638 
	C480.052582,79.007202 474.027161,79.007614 468.001709,79.008034 
	C468.001160,73.563660 468.102631,68.116585 467.957947,62.676041 
	C467.883392,59.871723 468.961273,58.876091 471.720398,58.959782 
	C476.500458,59.104778 481.288055,58.999378 486.542175,59.000866 
z"/>
<path fill="#D6D9DE" opacity="1.000000" stroke="none" 
	d="
M468.000793,79.475677 
	C474.027161,79.007614 480.052582,79.007202 486.548065,79.011322 
	C487.016571,85.020584 487.015045,91.025299 487.032043,97.493698 
	C481.934113,97.970276 476.814575,97.881454 471.702454,98.036652 
	C468.921997,98.121056 467.873108,97.088760 467.959717,94.301537 
	C468.108337,89.519669 468.000244,84.729828 468.000793,79.475677 
z"/>
<path fill="#A6AEB6" opacity="1.000000" stroke="none" 
	d="
M138.000626,370.000824 
	C144.019287,370.000610 150.037308,369.999603 156.992722,369.998993 
	C169.080765,369.999451 180.236557,369.805573 191.379395,370.100983 
	C195.479370,370.209656 196.724808,368.218750 196.929123,364.901733 
	C197.133423,361.585266 197.154251,358.237640 196.954285,354.921875 
	C196.765762,351.795898 198.067505,350.845184 201.039215,350.956726 
	C205.692566,351.131317 210.357407,350.999542 215.017380,350.997559 
	C220.509460,350.998871 226.003082,351.076752 231.492966,350.967560 
	C234.038498,350.916931 235.264709,351.835815 234.999313,354.445465 
	C234.982574,354.610016 234.994766,354.778290 235.001709,354.944458 
	C235.628006,369.943481 235.624374,370.150208 220.638367,369.883392 
	C215.864609,369.798370 214.642075,371.367371 214.908081,375.824036 
	C215.172623,380.256317 216.366943,386.623993 214.058716,388.696930 
	C211.388763,391.094788 205.342545,389.875275 200.757034,389.964630 
	C193.936111,390.097565 187.107101,390.131439 180.288757,389.944519 
	C177.091644,389.856873 175.675629,390.817261 175.954865,394.168976 
	C176.175171,396.813446 175.999161,399.490936 175.998062,402.153778 
	C175.995224,408.992950 175.994965,408.995178 169.396317,408.997070 
	C159.244263,409.000031 149.092194,408.999573 138.471893,409.002350 
	C137.999847,402.974792 137.996033,396.945465 137.991821,389.980713 
	C137.994888,382.697235 137.998367,376.349243 138.001831,370.001221 
	C138.001831,370.001221 138.000000,370.000000 138.000626,370.000824 
z"/>
<path fill="#959CA5" opacity="1.000000" stroke="none" 
	d="
M278.016724,408.918579 
	C276.750793,396.010437 275.351196,383.113312 274.282379,370.188873 
	C273.832825,364.752686 273.901672,359.249542 274.179138,353.799438 
	C274.229462,352.811127 276.388153,351.215637 277.655823,351.130829 
	C282.444427,350.810455 287.266998,350.997223 293.012817,350.991730 
	C299.986359,350.970032 306.023956,350.950775 312.523560,350.951294 
	C319.329285,350.971741 325.673035,350.972473 332.005493,350.984528 
	C331.994232,350.995850 331.979523,351.023041 331.984375,351.488831 
	C331.999023,357.967163 332.008820,363.979706 332.013123,370.461121 
	C332.000153,377.246521 331.992615,383.563110 331.519287,389.919983 
	C324.718506,389.990326 318.383514,390.020355 311.575439,390.034851 
	C306.488525,390.015625 301.867950,390.162292 297.263153,389.956207 
	C294.108521,389.814972 292.795410,390.794800 292.942810,394.124115 
	C293.161194,399.057281 292.980469,404.008148 292.995300,408.981323 
	C293.020996,409.011200 293.052307,409.083405 292.583862,409.052429 
	C287.415863,408.987152 282.716309,408.952881 278.016724,408.918579 
z"/>
<path fill="#ADB4BD" opacity="1.000000" stroke="none" 
	d="
M215.013702,350.529419 
	C210.357407,350.999542 205.692566,351.131317 201.039215,350.956726 
	C198.067505,350.845184 196.765762,351.795898 196.954285,354.921875 
	C197.154251,358.237640 197.133423,361.585266 196.929123,364.901733 
	C196.724808,368.218750 195.479370,370.209656 191.379395,370.100983 
	C180.236557,369.805573 169.080765,369.999451 157.460419,369.996521 
	C156.995850,363.979309 157.000977,357.964966 157.012268,351.484436 
	C162.123917,351.012085 167.232300,350.900208 172.333679,351.041656 
	C175.130554,351.119202 176.122009,350.042480 176.046783,347.286865 
	C175.907547,342.185303 176.013474,337.077026 176.031494,331.508392 
	C188.730255,331.036469 201.414810,331.027710 214.572937,331.036072 
	C215.034332,337.389252 215.022186,343.725250 215.013702,350.529419 
z"/>
<path fill="#CFD7E0" opacity="1.000000" stroke="none" 
	d="
M253.969864,447.982056 
	C241.289398,447.986359 228.608948,447.990662 215.458603,447.985870 
	C214.992905,441.648041 214.997086,435.319305 215.004578,428.529114 
	C227.695511,428.014984 240.383118,427.962280 253.537231,427.938416 
	C254.003738,427.967255 253.992004,428.117279 253.992294,428.573425 
	C253.985016,435.347076 253.977448,441.664581 253.969864,447.982056 
z"/>
<path fill="#A6AEB6" opacity="1.000000" stroke="none" 
	d="
M312.061523,350.931519 
	C306.023956,350.950775 299.986359,350.970032 293.482239,350.986328 
	C293.011047,344.651642 293.006409,338.319885 293.002258,331.527008 
	C293.002747,331.065918 292.999725,331.006866 293.466125,330.996490 
	C299.958038,330.985657 305.983521,330.985229 312.009033,330.984802 
	C312.009033,330.984802 311.999817,330.994965 312.004395,331.468384 
	C312.026520,338.271698 312.044006,344.601593 312.061523,350.931519 
z"/>
<path fill="#ADB4BD" opacity="1.000000" stroke="none" 
	d="
M254.003799,427.891998 
	C254.001419,423.153168 254.202789,418.477692 253.931122,413.829834 
	C253.719025,410.200775 254.757614,408.680359 258.635956,408.932983 
	C263.446106,409.246246 268.291382,409.020630 273.572205,409.506256 
	C274.000275,415.971832 273.977631,421.958954 273.491302,427.970886 
	C266.682434,428.036163 260.337219,428.076721 253.992004,428.117279 
	C253.992004,428.117279 254.003738,427.967255 254.003799,427.891998 
z"/>
<path fill="#C6CED7" opacity="1.000000" stroke="none" 
	d="
M273.954956,427.946106 
	C273.977631,421.958954 274.000275,415.971832 274.044556,409.523499 
	C275.119446,409.037476 276.172729,409.012665 277.621368,408.953217 
	C282.716309,408.952881 287.415863,408.987152 292.567139,409.512390 
	C293.005859,415.998352 292.992920,421.993286 292.979980,427.988251 
	C292.979950,427.988251 292.494263,428.016357 291.782776,428.013489 
	C285.365875,427.989105 279.660400,427.967621 273.954956,427.946106 
z"/>
<path fill="#BEC2CA" opacity="1.000000" stroke="none" 
	d="
M137.533142,369.999878 
	C137.998367,376.349243 137.994888,382.697235 137.986404,389.511047 
	C131.632309,389.982666 125.283218,389.988525 118.465332,389.994751 
	C117.998100,384.552399 118.102470,379.106964 117.958755,373.668091 
	C117.884491,370.857666 118.976112,369.883057 121.726990,369.959076 
	C126.835938,370.100220 131.951599,369.998901 137.533142,369.999878 
z"/>
<path fill="#E4EBF2" opacity="1.000000" stroke="none" 
	d="
M351.417450,430.948547 
	C351.201355,427.981720 349.659393,426.913727 346.790436,426.975311 
	C342.174591,427.074341 337.555084,427.000702 332.468506,426.532043 
	C332.000305,420.376495 332.000702,414.688843 331.988892,408.994324 
	C331.976746,408.987457 331.968658,408.960754 332.440399,408.973389 
	C337.698334,408.988464 342.487793,408.885559 347.269470,409.033783 
	C350.023956,409.119202 351.120331,408.141937 351.036133,405.327057 
	C350.883270,400.215240 350.986206,395.095795 350.989014,389.985535 
	C350.995667,389.991547 350.979492,389.981812 351.449158,389.987915 
	C358.279205,389.993622 364.639587,389.993256 371.000000,389.992889 
	C371.002045,396.019165 371.004059,402.045441 371.011536,408.541138 
	C371.010437,415.693756 371.003906,422.376953 370.993195,429.528259 
	C364.603485,430.295807 358.217987,430.595245 351.417450,430.948547 
z"/>
<path fill="#C6CED7" opacity="1.000000" stroke="none" 
	d="
M370.525818,544.994324 
	C370.994995,551.016968 370.996399,557.043030 370.996094,563.538208 
	C365.556000,564.003967 360.114899,563.898376 354.680237,564.039551 
	C351.884979,564.112122 350.878845,563.049561 350.962555,560.287292 
	C351.107269,555.512512 350.999542,550.730042 350.992676,545.484253 
	C357.344482,545.011047 363.701263,545.004395 370.525818,544.994324 
z"/>
<path fill="#E0E9F3" opacity="1.000000" stroke="none" 
	d="
M347.420807,466.996765 
	C347.665497,463.882172 348.328552,460.764618 349.001648,457.649292 
	C349.395996,455.824097 349.806427,454.002411 350.604187,452.088959 
	C350.997467,455.938202 351.230255,459.900452 350.850342,463.803009 
	C350.738312,464.953613 348.893860,465.935547 347.420807,466.996765 
z"/>
<path fill="#CFD7E0" opacity="1.000000" stroke="none" 
	d="
M370.999878,389.525208 
	C364.639587,389.993256 358.279205,389.993622 351.457947,389.521423 
	C351.015503,382.694794 351.033905,376.340790 351.517395,369.991333 
	C358.318817,369.994415 364.655121,369.992920 370.991455,369.991455 
	C370.991455,369.991455 370.998322,369.998322 371.001587,370.001587 
	C371.003174,376.355774 371.001434,382.706665 370.999878,389.525208 
z"/>
<path fill="#BEC2CA" opacity="1.000000" stroke="none" 
	d="
M312.523560,350.951294 
	C312.044006,344.601593 312.026520,338.271698 312.001160,331.474121 
	C318.349243,331.003021 324.705139,330.999542 331.532684,331.466919 
	C332.008484,338.282898 332.012604,344.628052 332.016754,350.973206 
	C325.673035,350.972473 319.329285,350.971741 312.523560,350.951294 
z"/>
<path fill="#C6CED7" opacity="1.000000" stroke="none" 
	d="
M370.994141,369.524048 
	C364.655121,369.992920 358.318817,369.994415 351.488983,370.005005 
	C350.995483,370.014130 350.933960,370.027893 350.956879,369.557251 
	C350.980408,363.063812 350.981049,357.041077 350.988739,351.011261 
	C350.995789,351.004211 351.011230,350.988770 351.011230,350.988770 
	C357.360321,350.993073 363.709412,350.997375 370.526184,351.003296 
	C370.994873,357.022156 370.995850,363.039398 370.994141,369.524048 
z"/>
<path fill="#C6CED7" opacity="1.000000" stroke="none" 
	d="
M332.005493,350.984528 
	C332.012604,344.628052 332.008484,338.282898 332.000946,331.469482 
	C337.107849,331.001953 342.221161,331.108246 347.327240,330.961578 
	C350.133148,330.880951 351.114014,331.971985 351.038422,334.724609 
	C350.898193,339.830994 351.001007,344.944061 351.006958,350.521545 
	C351.011230,350.988770 350.995789,351.004211 350.522583,351.005371 
	C344.026123,351.012024 338.002808,351.017548 331.979523,351.023041 
	C331.979523,351.023041 331.994232,350.995850 332.005493,350.984528 
z"/>
<path fill="#C5CAD2" opacity="1.000000" stroke="none" 
	d="
M312.005188,330.517853 
	C305.983521,330.985229 299.958038,330.985657 293.463989,330.966980 
	C292.995331,324.947235 292.995270,318.946564 292.992096,312.479034 
	C298.098419,312.009216 303.210846,312.110321 308.316040,311.962006 
	C311.109955,311.880829 312.120789,312.948669 312.037109,315.712799 
	C311.892487,320.488159 311.999756,325.271118 312.005188,330.517853 
z"/>
<path fill="#E0E9F3" opacity="1.000000" stroke="none" 
	d="
M273.491302,427.970886 
	C279.660400,427.967621 285.365875,427.989105 291.539978,428.028137 
	C292.004913,432.865112 291.906250,437.686981 292.031281,442.503021 
	C292.112518,445.632324 290.950073,446.984436 287.690796,447.045288 
	C276.763000,447.249268 265.839111,447.662415 254.441803,447.988770 
	C253.977448,441.664581 253.985016,435.347076 253.992294,428.573425 
	C260.337219,428.076721 266.682434,428.036163 273.491302,427.970886 
z"/>
<path fill="#DEE5EF" opacity="1.000000" stroke="none" 
	d="
M332.001068,409.001221 
	C332.000702,414.688843 332.000305,420.376495 332.000580,426.532043 
	C330.277679,427.332947 328.556305,427.940338 326.830200,427.954102 
	C315.861267,428.041443 304.891296,427.997742 293.450806,427.992737 
	C292.992920,421.993286 293.005859,415.998352 293.035583,409.543396 
	C293.052307,409.083405 293.020996,409.011200 293.465942,409.007507 
	C299.927765,408.981110 305.944611,408.958374 312.431885,408.956299 
	C319.268524,408.985046 325.634796,408.993134 332.001068,409.001221 
z"/>
<path fill="#BEC2CA" opacity="1.000000" stroke="none" 
	d="
M331.988892,408.994354 
	C325.634796,408.993134 319.268524,408.985046 312.448669,408.494843 
	C312.012909,402.025269 312.030701,396.037842 312.048523,390.050385 
	C318.383514,390.020355 324.718506,389.990326 331.527344,389.976013 
	C332.001190,389.991760 332.013397,390.102173 332.006866,390.560089 
	C331.989777,396.998932 331.979187,402.979828 331.968628,408.960754 
	C331.968658,408.960754 331.976746,408.987457 331.988892,408.994354 
z"/>
<path fill="#A6AEB6" opacity="1.000000" stroke="none" 
	d="
M351.023895,370.000458 
	C351.033905,376.340790 351.015503,382.694794 350.988281,389.515320 
	C350.979492,389.981812 350.995667,389.991547 350.522522,389.991333 
	C344.037415,390.028168 338.025391,390.065186 332.013397,390.102173 
	C332.013397,390.102173 332.001190,389.991760 331.993164,389.935730 
	C331.992615,383.563110 332.000153,377.246521 332.479309,370.464325 
	C338.945282,370.008423 344.939606,370.018158 350.933960,370.027893 
	C350.933960,370.027893 350.995483,370.014130 351.023895,370.000458 
z"/>
<path fill="#A6AEB6" opacity="1.000000" stroke="none" 
	d="
M311.575439,390.034851 
	C312.030701,396.037842 312.012909,402.025269 311.978302,408.474182 
	C305.944611,408.958374 299.927765,408.981110 293.440247,408.977661 
	C292.980469,404.008148 293.161194,399.057281 292.942810,394.124115 
	C292.795410,390.794800 294.108521,389.814972 297.263153,389.956207 
	C301.867950,390.162292 306.488525,390.015625 311.575439,390.034851 
z"/>
<path fill="#ADB4BD" opacity="1.000000" stroke="none" 
	d="
M350.956879,369.557251 
	C344.939606,370.018158 338.945282,370.008423 332.484741,369.995483 
	C332.008820,363.979706 331.999023,357.967163 331.984375,351.488831 
	C338.002808,351.017548 344.026123,351.012024 350.515564,351.012390 
	C350.981049,357.041077 350.980408,363.063812 350.956879,369.557251 
z"/>
<path fill="#CFD7E0" opacity="1.000000" stroke="none" 
	d="
M332.006866,390.560120 
	C338.025391,390.065186 344.037415,390.028168 350.515869,389.985352 
	C350.986206,395.095795 350.883270,400.215240 351.036133,405.327057 
	C351.120331,408.141937 350.023956,409.119202 347.269470,409.033783 
	C342.487793,408.885559 337.698334,408.988464 332.440369,408.973389 
	C331.979187,402.979828 331.989777,396.998932 332.006866,390.560120 
z"/>
</svg>